/* XPM */
static char * close_inactive_xpm[] = {
"25 25 149 2",
"  	c None",
". 	c #CBCBCB",
"+ 	c #A5A5A5",
"@ 	c #A1A1A1",
"# 	c #8A8A8A",
"$ 	c #7C7C7C",
"% 	c #767676",
"& 	c #777777",
"* 	c #7D7D7D",
"= 	c #878787",
"- 	c #959595",
"; 	c #A3A3A3",
"> 	c #9F9F9F",
", 	c #888888",
"' 	c #6E6E6E",
") 	c #4C4C4C",
"! 	c #2F2F2F",
"~ 	c #1C1C1C",
"{ 	c #161616",
"] 	c #1E1E1E",
"^ 	c #353535",
"/ 	c #5B5B5B",
"( 	c #8B8B8B",
"_ 	c #989898",
": 	c #999999",
"< 	c #7F7F7F",
"[ 	c #5A5A5A",
"} 	c #272727",
"| 	c #141414",
"1 	c #1F2F39",
"2 	c #233E4F",
"3 	c #193C54",
"4 	c #042439",
"5 	c #001523",
"6 	c #181818",
"7 	c #323232",
"8 	c #7A7A7A",
"9 	c #969696",
"0 	c #949494",
"a 	c #828282",
"b 	c #1A1A1A",
"c 	c #232B30",
"d 	c #4F6473",
"e 	c #4D6B7E",
"f 	c #38596F",
"g 	c #234860",
"h 	c #0D3550",
"i 	c #002B47",
"j 	c #00233A",
"k 	c #000E17",
"l 	c #242424",
"m 	c #818181",
"n 	c #979797",
"o 	c #8D8D8D",
"p 	c #6D6D6D",
"q 	c #778B98",
"r 	c #697984",
"s 	c #526471",
"t 	c #3C5C72",
"u 	c #254961",
"v 	c #0F3752",
"w 	c #001E32",
"x 	c #011F33",
"y 	c #012C49",
"z 	c #00101A",
"A 	c #373737",
"B 	c #8E8E8E",
"C 	c #BBC5CC",
"D 	c #B2BEC6",
"E 	c #384D5C",
"F 	c #234A63",
"G 	c #0E2B3E",
"H 	c #94A7B3",
"I 	c #94A8B4",
"J 	c #04243A",
"K 	c #042E47",
"L 	c #1D1D1D",
"M 	c #707070",
"N 	c #808080",
"O 	c #737373",
"P 	c #405463",
"Q 	c #2E4757",
"R 	c #1C394B",
"S 	c #09293E",
"T 	c #04263C",
"U 	c #95AAB7",
"V 	c #06293F",
"W 	c #093E60",
"X 	c #041E2E",
"Y 	c #454545",
"Z 	c #7B7B7B",
"` 	c #A1B2BC",
" .	c #9AAEBA",
"..	c #95AAB8",
"+.	c #062A41",
"@.	c #072C43",
"#.	c #0C4567",
"$.	c #0C4568",
"%.	c #09354F",
"&.	c #292929",
"*.	c #ACACAC",
"=.	c #757575",
"-.	c #96ADBA",
";.	c #082E46",
">.	c #0F4A6D",
",.	c #104B6F",
"'.	c #104C70",
").	c #0E4668",
"!.	c #1F1F1F",
"~.	c #B4B4B4",
"{.	c #0F3B57",
"].	c #98AFBD",
"^.	c #0A324B",
"/.	c #0C354D",
"(.	c #135277",
"_.	c #135378",
":.	c #0E3F5B",
"<.	c #2B2B2B",
"[.	c #B2B2B2",
"}.	c #0C364F",
"|.	c #9AB4C4",
"1.	c #0E3B55",
"2.	c #165A81",
"3.	c #0A2B3E",
"4.	c #4B4B4B",
"5.	c #A9A9A9",
"6.	c #9BB6C6",
"7.	c #103F5A",
"8.	c #155071",
"9.	c #212121",
"0.	c #1A5E85",
"a.	c #092230",
"b.	c #424242",
"c.	c #BABABA",
"d.	c #797979",
"e.	c #7E7E7E",
"f.	c #2D2D2D",
"g.	c #939393",
"h.	c #858585",
"i.	c #9D9D9D",
"j.	c #848484",
"k.	c #9E9E9E",
"l.	c #8C8C8C",
"m.	c #686868",
"n.	c #000000",
"o.	c #04273D",
"p.	c #0F3C56",
"q.	c #1A5272",
"r.	c #24678B",
". . . . . . . . . . . . . . . . . . . . . . . . . ",
"+ + + + + + + + @ # $ % & * = - ; + + + + + + + + ",
"> > > > > > > , ' ) ! ~ { ] ^ / ( _ > > > > > > > ",
": : : : : : < [ } | 1 2 3 4 5 6 7 8 9 : : : : : : ",
"0 0 0 0 0 a [ b c d e f g h i j k l m n 0 0 0 0 0 ",
"o o o o # p } c q r s t u v w x y z A > B o o o o ",
"= = = = 8 ) | d r C D E F G H I J K L M 9 = = = = ",
"N N N N O ! 1 e s D P Q R S T U V W X Y @ N N N N ",
"Z Z Z Z O ~ 2 f t E Q `  ...+.@.#.$.%.&.*.Z Z Z Z ",
"=.=.=.=.& { 3 g u F R  .V -.;.>.,.'.).!.~.=.=.=.=.",
"=.=.=.=.8 ] 4 h v {.S ..-.].^./.(._.:.<.[.=.=.=.=.",
"=.=.=.=.Z ^ 5 i w H T +.;.^.}.|.1.2.3.4.5.=.=.=.=.",
"=.=.=.=.8 / 6 j x I U @.>./.|.6.7.8.9.N 9 =.=.=.=.",
"=.=.=.=.=., 7 k y J V #.,.(.1.7.0.a.b.c.d.=.=.=.=.",
"=.=.=.=.=.e.8 l z K W $.'._.2.8.a.f.@ g.=.=.=.=.=.",
"=.=.=.=.=.=.h.m A L X %.).:.3.9.b.@ i.=.=.=.=.=.=.",
"=.=.=.=.=.=.=.j.k.M Y &.!.<.4.N c.g.=.=.=.=.=.=.=.",
"=.=.=.=.=.=.=.=.& l.k.*.~.[.5.9 d.=.=.=.=.=.=.=.=.",
"m.m.m.m.m.m.m.m.m.m.m.m.m.m.m.m.m.m.m.m.m.m.m.m.m.",
"n.n.n.n.n.n.n.n.n.n.n.n.n.n.n.n.n.n.n.n.n.n.n.n.n.",
"o.o.o.o.o.o.o.o.o.o.o.o.o.o.o.o.o.o.o.o.o.o.o.o.o.",
"p.p.p.p.p.p.p.p.p.p.p.p.p.p.p.p.p.p.p.p.p.p.p.p.p.",
"q.q.q.q.q.q.q.q.q.q.q.q.q.q.q.q.q.q.q.q.q.q.q.q.q.",
"r.r.r.r.r.r.r.r.r.r.r.r.r.r.r.r.r.r.r.r.r.r.r.r.r.",
"n.n.n.n.n.n.n.n.n.n.n.n.n.n.n.n.n.n.n.n.n.n.n.n.n."};
