/* XPM */
static char * close_activeup_xpm[] = {
"25 25 150 2",
"  	c None",
". 	c #F4F4F4",
"+ 	c #C6C6C6",
"@ 	c #C1C1C1",
"# 	c #A6A6A6",
"$ 	c #959595",
"% 	c #8D8D8D",
"& 	c #8F8F8F",
"* 	c #969696",
"= 	c #A3A3A3",
"- 	c #B3B3B3",
"; 	c #C3C3C3",
"> 	c #BFBFBF",
", 	c #A4A4A4",
"' 	c #848484",
") 	c #5B5B5B",
"! 	c #383838",
"~ 	c #222222",
"{ 	c #1A1A1A",
"] 	c #242424",
"^ 	c #404040",
"/ 	c #6E6E6E",
"( 	c #A7A7A7",
"_ 	c #B6B6B6",
": 	c #B7B7B7",
"< 	c #989898",
"[ 	c #6D6D6D",
"} 	c #2F2F2F",
"| 	c #181818",
"1 	c #1F3745",
"2 	c #234C63",
"3 	c #19506E",
"4 	c #043550",
"5 	c #002032",
"6 	c #1D1D1D",
"7 	c #3C3C3C",
"8 	c #949494",
"9 	c #B4B4B4",
"0 	c #B1B1B1",
"a 	c #9C9C9C",
"b 	c #202020",
"c 	c #232F37",
"d 	c #4F7183",
"e 	c #4D7B94",
"f 	c #386B87",
"g 	c #235B7B",
"h 	c #0D4B6D",
"i 	c #004266",
"j 	c #003654",
"k 	c #001622",
"l 	c #2B2B2B",
"m 	c #9B9B9B",
"n 	c #B5B5B5",
"o 	c #A9A9A9",
"p 	c #838383",
"q 	c #7795A6",
"r 	c #698291",
"s 	c #526F80",
"t 	c #3C6E8A",
"u 	c #255D7C",
"v 	c #0F4D6F",
"w 	c #012E47",
"x 	c #023049",
"y 	c #044568",
"z 	c #011925",
"A 	c #424242",
"B 	c #AAAAAA",
"C 	c #A2A2A2",
"D 	c #929292",
"E 	c #BBCBD4",
"F 	c #B2C5CF",
"G 	c #385A6D",
"H 	c #245F7F",
"I 	c #103C54",
"J 	c #95B2C1",
"K 	c #96B3C3",
"L 	c #073953",
"M 	c #094667",
"N 	c #878787",
"O 	c #9A9A9A",
"P 	c #8A8A8A",
"Q 	c #406072",
"R 	c #2F5569",
"S 	c #1F4961",
"T 	c #0C3D57",
"U 	c #093B57",
"V 	c #98B7C8",
"W 	c #0B3F5B",
"X 	c #12608A",
"Y 	c #082E43",
"Z 	c #535353",
"` 	c #939393",
" .	c #A3BBC9",
"..	c #9DB9C8",
"+.	c #99B7C8",
"@.	c #0D425E",
"#.	c #0E4561",
"$.	c #186995",
"%.	c #186A96",
"&.	c #125072",
"*.	c #323232",
"=.	c #CECECE",
"-.	c #8C8C8C",
";.	c #9BBBCC",
">.	c #104865",
",.	c #1C709E",
"'.	c #1E73A2",
").	c #1F74A3",
"!.	c #1C6B97",
"~.	c #262626",
"{.	c #D8D8D8",
"].	c #125478",
"^.	c #9DBED0",
"/.	c #144D6D",
"(.	c #165171",
"_.	c #247EAE",
":.	c #257FAF",
"<.	c #1B6085",
"[.	c #343434",
"}.	c #D7D7D7",
"|.	c #175373",
"1.	c #A2C6DA",
"2.	c #1C5B7C",
"3.	c #2B89BC",
"4.	c #14435B",
"5.	c #CCCCCC",
"6.	c #A4CADE",
"7.	c #206184",
"8.	c #297AA5",
"9.	c #272727",
"0.	c #3190C2",
"a.	c #123447",
"b.	c #4F4F4F",
"c.	c #E0E0E0",
"d.	c #919191",
"e.	c #979797",
"f.	c #363636",
"g.	c #C2C2C2",
"h.	c #A0A0A0",
"i.	c #BCBCBC",
"j.	c #9F9F9F",
"k.	c #BDBDBD",
"l.	c #A8A8A8",
"m.	c #BEBEBE",
"n.	c #7D7D7D",
"o.	c #000000",
"p.	c #063858",
"q.	c #15567C",
"r.	c #2576A4",
"s.	c #3493C8",
". . . . . . . . . . . . . . . . . . . . . . . . . ",
"+ + + + + + + + @ # $ % & * = - ; + + + + + + + + ",
"> > > > > > > , ' ) ! ~ { ] ^ / ( _ > > > > > > > ",
": : : : : : < [ } | 1 2 3 4 5 6 7 8 9 : : : : : : ",
"0 0 0 0 0 a [ b c d e f g h i j k l m n 0 0 0 0 0 ",
"o o o o # p } c q r s t u v w x y z A > B o o o o ",
"C C C C D ) | d r E F G H I J K L M ~ N 9 C C C C ",
"O O O O P ! 1 e s F Q R S T U V W X Y Z @ O O O O ",
"` ` ` ` P ~ 2 f t G R  ...+.@.#.$.%.&.*.=.` ` ` ` ",
"-.-.-.-.& { 3 g u H S ..W ;.>.,.'.).!.~.{.-.-.-.-.",
"-.-.-.-.D ] 4 h v ].T +.;.^./.(._.:.<.[.}.-.-.-.-.",
"-.-.-.-.$ ^ 5 i w J U @.>./.|.1.2.3.4.) 5.-.-.-.-.",
"-.-.-.-.` / 6 j x K V #.,.(.1.6.7.8.9.O 9 -.-.-.-.",
"-.-.-.-.% , 7 k y L W $.'._.2.7.0.a.b.c.d.-.-.-.-.",
"-.-.-.-.-.e.8 l z M X %.).:.3.8.a.f.g.0 -.-.-.-.-.",
"-.-.-.-.-.-.h.m A ~ Y &.!.<.4.9.b.g.i.-.-.-.-.-.-.",
"-.-.-.-.-.-.-.j.k.N Z *.~.[.) O c.0 -.-.-.-.-.-.-.",
"-.-.-.-.-.-.-.-.& l.m.=.{.}.5.9 d.-.-.-.-.-.-.-.-.",
"n.n.n.n.n.n.n.n.n.n.n.n.n.n.n.n.n.n.n.n.n.n.n.n.n.",
"o.o.o.o.o.o.o.o.o.o.o.o.o.o.o.o.o.o.o.o.o.o.o.o.o.",
"p.p.p.p.p.p.p.p.p.p.p.p.p.p.p.p.p.p.p.p.p.p.p.p.p.",
"q.q.q.q.q.q.q.q.q.q.q.q.q.q.q.q.q.q.q.q.q.q.q.q.q.",
"r.r.r.r.r.r.r.r.r.r.r.r.r.r.r.r.r.r.r.r.r.r.r.r.r.",
"s.s.s.s.s.s.s.s.s.s.s.s.s.s.s.s.s.s.s.s.s.s.s.s.s.",
"o.o.o.o.o.o.o.o.o.o.o.o.o.o.o.o.o.o.o.o.o.o.o.o.o."};
