/* XPM */
static char * iconify_inactive_xpm[] = {
"25 25 165 2",
"  	c None",
". 	c #CBCBCB",
"+ 	c #A5A5A5",
"@ 	c #A1A1A1",
"# 	c #8A8A8A",
"$ 	c #7C7C7C",
"% 	c #767676",
"& 	c #777777",
"* 	c #7D7D7D",
"= 	c #878787",
"- 	c #959595",
"; 	c #A3A3A3",
"> 	c #9F9F9F",
", 	c #888888",
"' 	c #6E6E6E",
") 	c #4C4C4C",
"! 	c #2F2F2F",
"~ 	c #1C1C1C",
"{ 	c #161616",
"] 	c #1E1E1E",
"^ 	c #353535",
"/ 	c #5B5B5B",
"( 	c #8B8B8B",
"_ 	c #989898",
": 	c #999999",
"< 	c #7F7F7F",
"[ 	c #5A5A5A",
"} 	c #272727",
"| 	c #141414",
"1 	c #1F2F39",
"2 	c #233E4F",
"3 	c #193C54",
"4 	c #042439",
"5 	c #001523",
"6 	c #181818",
"7 	c #323232",
"8 	c #7A7A7A",
"9 	c #969696",
"0 	c #949494",
"a 	c #828282",
"b 	c #1A1A1A",
"c 	c #232B30",
"d 	c #4F6473",
"e 	c #4D6B7E",
"f 	c #38596F",
"g 	c #234860",
"h 	c #0D3550",
"i 	c #002B47",
"j 	c #00233A",
"k 	c #000E17",
"l 	c #242424",
"m 	c #818181",
"n 	c #979797",
"o 	c #8D8D8D",
"p 	c #6D6D6D",
"q 	c #778B98",
"r 	c #697984",
"s 	c #526471",
"t 	c #3C515F",
"u 	c #253C4D",
"v 	c #0F293C",
"w 	c #001E32",
"x 	c #011F33",
"y 	c #012C49",
"z 	c #00101A",
"A 	c #373737",
"B 	c #8E8E8E",
"C 	c #BBC5CC",
"D 	c #B2BEC6",
"E 	c #A9B7BF",
"F 	c #A0B0BA",
"G 	c #98AAB5",
"H 	c #94A7B3",
"I 	c #94A8B4",
"J 	c #04243A",
"K 	c #042E47",
"L 	c #1D1D1D",
"M 	c #707070",
"N 	c #808080",
"O 	c #737373",
"P 	c #ADBAC2",
"Q 	c #A6B5BF",
"R 	c #9FAFBB",
"S 	c #96AAB6",
"T 	c #95A9B6",
"U 	c #95AAB7",
"V 	c #06293F",
"W 	c #093E60",
"X 	c #041E2E",
"Y 	c #454545",
"Z 	c #7B7B7B",
"` 	c #3C5C72",
" .	c #384D5C",
"..	c #2E4757",
"+.	c #213D50",
"@.	c #123246",
"#.	c #05283F",
"$.	c #062A41",
"%.	c #072C43",
"&.	c #0C4567",
"*.	c #0C4568",
"=.	c #09354F",
"-.	c #292929",
";.	c #ACACAC",
">.	c #757575",
",.	c #9AAEBA",
"'.	c #96ABB8",
").	c #96ADBA",
"!.	c #97AEBC",
"~.	c #98B0BE",
"{.	c #0A324A",
"].	c #104C70",
"^.	c #0E4668",
"/.	c #1F1F1F",
"(.	c #B4B4B4",
"_.	c #0F3752",
":.	c #0E2B3E",
"<.	c #95AAB8",
"[.	c #98AFBD",
"}.	c #98B0BF",
"|.	c #0C354D",
"1.	c #135277",
"2.	c #135378",
"3.	c #0E3F5B",
"4.	c #2B2B2B",
"5.	c #B2B2B2",
"6.	c #012D4B",
"7.	c #043453",
"8.	c #04263C",
"9.	c #96ACB9",
"0.	c #0C364F",
"a.	c #14567C",
"b.	c #16597F",
"c.	c #165A81",
"d.	c #0A2B3E",
"e.	c #4B4B4B",
"f.	c #A9A9A9",
"g.	c #022F4D",
"h.	c #053655",
"i.	c #083C5D",
"j.	c #175B82",
"k.	c #195F87",
"l.	c #155071",
"m.	c #212121",
"n.	c #063757",
"o.	c #093E5F",
"p.	c #1A5E85",
"q.	c #092230",
"r.	c #424242",
"s.	c #BABABA",
"t.	c #797979",
"u.	c #7E7E7E",
"v.	c #2D2D2D",
"w.	c #939393",
"x.	c #858585",
"y.	c #9D9D9D",
"z.	c #848484",
"A.	c #9E9E9E",
"B.	c #8C8C8C",
"C.	c #686868",
"D.	c #000000",
"E.	c #04273D",
"F.	c #0F3C56",
"G.	c #1A5272",
"H.	c #24678B",
". . . . . . . . . . . . . . . . . . . . . . . . . ",
"+ + + + + + + + @ # $ % & * = - ; + + + + + + + + ",
"> > > > > > > , ' ) ! ~ { ] ^ / ( _ > > > > > > > ",
": : : : : : < [ } | 1 2 3 4 5 6 7 8 9 : : : : : : ",
"0 0 0 0 0 a [ b c d e f g h i j k l m n 0 0 0 0 0 ",
"o o o o # p } c q r s t u v w x y z A > B o o o o ",
"= = = = 8 ) | d r C D E F G H I J K L M 9 = = = = ",
"N N N N O ! 1 e s D P Q R S T U V W X Y @ N N N N ",
"Z Z Z Z O ~ 2 f `  ...+.@.#.$.%.&.*.=.-.;.Z Z Z Z ",
">.>.>.>.& { 3 g u F R ,.'.).!.~.{.].^./.(.>.>.>.>.",
">.>.>.>.8 ] 4 h _.:.S <.).[.}.|.1.2.3.4.5.>.>.>.>.",
">.>.>.>.Z ^ 5 i 6.7.8.9.!.}.0.a.b.c.d.e.f.>.>.>.>.",
">.>.>.>.8 / 6 j g.h.i.%.~.|.a.j.k.l.m.N 9 >.>.>.>.",
">.>.>.>.>., 7 k y n.o.&.{.1.b.k.p.q.r.s.t.>.>.>.>.",
">.>.>.>.>.u.8 l z K W *.].2.c.l.q.v.@ w.>.>.>.>.>.",
">.>.>.>.>.>.x.m A L X =.^.3.d.m.r.@ y.>.>.>.>.>.>.",
">.>.>.>.>.>.>.z.A.M Y -./.4.e.N s.w.>.>.>.>.>.>.>.",
">.>.>.>.>.>.>.>.& B.A.;.(.5.f.9 t.>.>.>.>.>.>.>.>.",
"C.C.C.C.C.C.C.C.C.C.C.C.C.C.C.C.C.C.C.C.C.C.C.C.C.",
"D.D.D.D.D.D.D.D.D.D.D.D.D.D.D.D.D.D.D.D.D.D.D.D.D.",
"E.E.E.E.E.E.E.E.E.E.E.E.E.E.E.E.E.E.E.E.E.E.E.E.E.",
"F.F.F.F.F.F.F.F.F.F.F.F.F.F.F.F.F.F.F.F.F.F.F.F.F.",
"G.G.G.G.G.G.G.G.G.G.G.G.G.G.G.G.G.G.G.G.G.G.G.G.G.",
"H.H.H.H.H.H.H.H.H.H.H.H.H.H.H.H.H.H.H.H.H.H.H.H.H.",
"D.D.D.D.D.D.D.D.D.D.D.D.D.D.D.D.D.D.D.D.D.D.D.D.D."};
