/* XPM */
static char * iconify_activeup_xpm[] = {
"25 25 176 2",
"  	c None",
". 	c #F4F4F4",
"+ 	c #C6C6C6",
"@ 	c #C2C2C2",
"# 	c #ACACAC",
"$ 	c #9F9F9F",
"% 	c #999999",
"& 	c #9A9A9A",
"* 	c #AAAAAA",
"= 	c #B7B7B7",
"- 	c #C4C4C4",
"; 	c #BFBFBF",
"> 	c #A9A9A9",
", 	c #909090",
"' 	c #64727A",
") 	c #3F5869",
"! 	c #27475D",
"~ 	c #1F4259",
"{ 	c #29495F",
"] 	c #455E6F",
"^ 	c #73818A",
"/ 	c #B8B8B8",
"( 	c #9E9E9E",
"_ 	c #767C81",
": 	c #345062",
"< 	c #1D4057",
"[ 	c #002B48",
"} 	c #21455C",
"| 	c #3F5B6D",
"1 	c #959CA0",
"2 	c #B5B5B5",
"3 	c #B1B1B1",
"4 	c #A0A0A0",
"5 	c #757B80",
"6 	c #24455A",
"7 	c #09334F",
"8 	c #537083",
"9 	c #7D92A1",
"0 	c #6F8797",
"a 	c #46667B",
"b 	c #133F5B",
"c 	c #043554",
"d 	c #043555",
"e 	c #02304E",
"f 	c #2E4E64",
"g 	c #9AA1A5",
"h 	c #B4B4B4",
"i 	c #A7A7A7",
"j 	c #8B8B8B",
"k 	c #334F62",
"l 	c #8297A5",
"m 	c #828F99",
"n 	c #74838E",
"o 	c #657884",
"p 	c #586E7C",
"q 	c #486271",
"r 	c #103349",
"s 	c #072C43",
"t 	c #0B4265",
"u 	c #043453",
"v 	c #445F72",
"w 	c #BABABA",
"x 	c #A2A2A2",
"y 	c #959595",
"z 	c #606D76",
"A 	c #1C3F56",
"B 	c #C3CCD3",
"C 	c #BDC9D1",
"D 	c #B9C6CE",
"E 	c #B3C3CC",
"F 	c #AEC0CB",
"G 	c #A4B9C5",
"H 	c #99B1C0",
"I 	c #0C344D",
"J 	c #0E496D",
"K 	c #25485F",
"L 	c #83919A",
"M 	c #B0B0B0",
"N 	c #8D8D8D",
"O 	c #3C5566",
"P 	c #B9C7CF",
"Q 	c #B3C4CD",
"R 	c #AFC1CC",
"S 	c #AABECA",
"T 	c #A5BCC9",
"U 	c #9BB5C5",
"V 	c #0F3C57",
"W 	c #185B83",
"X 	c #0B4365",
"Y 	c #526B7B",
"Z 	c #939393",
"` 	c #8C8C8C",
" .	c #25455B",
"..	c #668294",
"+.	c #59707E",
"@.	c #4D6778",
"#.	c #416073",
"$.	c #34576D",
"%.	c #295168",
"&.	c #1D4963",
"*.	c #12425D",
"=.	c #1D658F",
"-.	c #1D6690",
";.	c #16587F",
">.	c #325368",
",.	c #8E8E8E",
"'.	c #ABBFCC",
").	c #A6BECC",
"!.	c #A2BCCC",
"~.	c #9EBCCD",
"{.	c #9FBECF",
"].	c #164B69",
"^.	c #23719E",
"/.	c #206C98",
"(.	c #274A61",
"_.	c #C8C8C8",
":.	c #919191",
"<.	c #26475C",
"[.	c #4A7088",
"}.	c #405D70",
"|.	c #A6BECB",
"1.	c #9EBCCE",
"2.	c #A0BFD1",
"3.	c #194F6E",
"4.	c #287BAA",
"5.	c #287CAB",
"6.	c #1E6993",
"7.	c #335469",
"8.	c #415A6B",
"9.	c #144867",
"0.	c #2B5F7F",
"a.	c #274D64",
"b.	c #A1BBCB",
"c.	c #1A5170",
"d.	c #2A81B1",
"e.	c #2D86B7",
"f.	c #2E87B9",
"g.	c #165980",
"h.	c #577080",
"i.	c #929292",
"j.	c #6C7982",
"k.	c #20435A",
"l.	c #114D72",
"m.	c #2F89BB",
"n.	c #3290C3",
"o.	c #2A80B0",
"p.	c #284C63",
"q.	c #909DA6",
"r.	c #3C586A",
"s.	c #124F74",
"t.	c #175A82",
"u.	c #3392C6",
"v.	c #135379",
"w.	c #4C687A",
"x.	c #CFCFCF",
"y.	c #8E9599",
"z.	c #2C4C62",
"A.	c #35566B",
"B.	c #B4BABF",
"C.	c #9C9C9C",
"D.	c #949B9F",
"E.	c #415D70",
"F.	c #24475E",
"G.	c #B2B2B2",
"H.	c #9B9B9B",
"I.	c #B3B3B3",
"J.	c #818E97",
"K.	c #50697A",
"L.	c #315268",
"M.	c #C1C1C1",
"N.	c #7D7D7D",
"O.	c #000000",
"P.	c #063858",
"Q.	c #15567C",
"R.	c #2576A4",
"S.	c #3493C8",
". . . . . . . . . . . . . . . . . . . . . . . . . ",
"+ + + + + + + + @ # $ % & $ * = - + + + + + + + + ",
"; ; ; ; ; ; ; > , ' ) ! ~ { ] ^ # / ; ; ; ; ; ; ; ",
"= = = = = = ( _ : < [ [ [ [ [ } | 1 2 = = = = = = ",
"3 3 3 3 3 4 5 6 7 8 9 0 a b c d e f g h 3 3 3 3 3 ",
"> > > > i j k 7 l m n o p q r s t u v w * > > > > ",
"x x x x y z A 8 m B C D E F G H I J K L M x x x x ",
"& & & & N O [ 9 n C P Q R S T U V W X Y w & & & & ",
"Z Z Z Z `  .[ 0 ..+.@.#.$.%.&.*.=.-.;.>.@ Z Z Z Z ",
"` ` ` ` ,.< [ a p E R '.).!.~.{.].^./.(._.` ` ` ` ",
"` ` ` ` :.<.[ b [.}.S |.!.1.2.3.4.5.6.7._.` ` ` ` ",
"` ` ` ` Z 8.[ c 9.0.a.b.~.2.c.d.e.f.g.h.; ` ` ` ` ",
"` ` ` ` i.j.k.d X l.;.*.{.3.d.m.n.o.p.q.# ` ` ` ` ",
"` ` ` ` ` $ r.e t s.t.=.].4.e.n.u.v.w.x., ` ` ` ` ",
"` ` ` ` ` y y.z.u J W -.^.5.f.o.v.A.B.> ` ` ` ` ` ",
"` ` ` ` ` ` C.D.E.F.X ;./.6.g.p.w.B.G.` ` ` ` ` ` ",
"` ` ` ` ` ` ` H.I.J.K.L.(.7.h.q.x.> ` ` ` ` ` ` ` ",
"` ` ` ` ` ` ` ` ,.x h M._._.; # , ` ` ` ` ` ` ` ` ",
"N.N.N.N.N.N.N.N.N.N.N.N.N.N.N.N.N.N.N.N.N.N.N.N.N.",
"O.O.O.O.O.O.O.O.O.O.O.O.O.O.O.O.O.O.O.O.O.O.O.O.O.",
"P.P.P.P.P.P.P.P.P.P.P.P.P.P.P.P.P.P.P.P.P.P.P.P.P.",
"Q.Q.Q.Q.Q.Q.Q.Q.Q.Q.Q.Q.Q.Q.Q.Q.Q.Q.Q.Q.Q.Q.Q.Q.Q.",
"R.R.R.R.R.R.R.R.R.R.R.R.R.R.R.R.R.R.R.R.R.R.R.R.R.",
"S.S.S.S.S.S.S.S.S.S.S.S.S.S.S.S.S.S.S.S.S.S.S.S.S.",
"O.O.O.O.O.O.O.O.O.O.O.O.O.O.O.O.O.O.O.O.O.O.O.O.O."};
