/* XPM */
static char * maximize_inactive_xpm[] = {
"25 25 166 2",
"  	c None",
". 	c #CBCBCB",
"+ 	c #A5A5A5",
"@ 	c #A1A1A1",
"# 	c #8A8A8A",
"$ 	c #7C7C7C",
"% 	c #767676",
"& 	c #777777",
"* 	c #7D7D7D",
"= 	c #878787",
"- 	c #959595",
"; 	c #A3A3A3",
"> 	c #9F9F9F",
", 	c #888888",
"' 	c #6E6E6E",
") 	c #4C4C4C",
"! 	c #2F2F2F",
"~ 	c #1C1C1C",
"{ 	c #161616",
"] 	c #1E1E1E",
"^ 	c #353535",
"/ 	c #5B5B5B",
"( 	c #8B8B8B",
"_ 	c #989898",
": 	c #999999",
"< 	c #7F7F7F",
"[ 	c #5A5A5A",
"} 	c #272727",
"| 	c #141414",
"1 	c #1F2F39",
"2 	c #233E4F",
"3 	c #193C54",
"4 	c #042439",
"5 	c #001523",
"6 	c #181818",
"7 	c #323232",
"8 	c #7A7A7A",
"9 	c #969696",
"0 	c #949494",
"a 	c #828282",
"b 	c #1A1A1A",
"c 	c #232B30",
"d 	c #4F6473",
"e 	c #4D6B7E",
"f 	c #38596F",
"g 	c #234860",
"h 	c #0D3550",
"i 	c #002B47",
"j 	c #00233A",
"k 	c #000E17",
"l 	c #242424",
"m 	c #818181",
"n 	c #979797",
"o 	c #8D8D8D",
"p 	c #6D6D6D",
"q 	c #778B98",
"r 	c #698292",
"s 	c #526471",
"t 	c #3C515F",
"u 	c #253C4D",
"v 	c #0F293C",
"w 	c #001E32",
"x 	c #011F33",
"y 	c #012C49",
"z 	c #00101A",
"A 	c #373737",
"B 	c #8E8E8E",
"C 	c #60717D",
"D 	c #B2BEC6",
"E 	c #A9B7BF",
"F 	c #A0B0BA",
"G 	c #98AAB5",
"H 	c #94A7B3",
"I 	c #94A8B4",
"J 	c #04243A",
"K 	c #042E47",
"L 	c #1D1D1D",
"M 	c #707070",
"N 	c #808080",
"O 	c #737373",
"P 	c #526F82",
"Q 	c #4D606D",
"R 	c #ADBAC2",
"S 	c #A6B5BF",
"T 	c #9FAFBB",
"U 	c #96AAB6",
"V 	c #95A9B6",
"W 	c #95AAB7",
"X 	c #06293F",
"Y 	c #093E60",
"Z 	c #041E2E",
"` 	c #454545",
" .	c #7B7B7B",
"..	c #3C5C72",
"+.	c #384D5C",
"@.	c #2E4757",
"#.	c #213D50",
"$.	c #123246",
"%.	c #05283F",
"&.	c #96ACB9",
"*.	c #96ADBA",
"=.	c #082E45",
"-.	c #0C4568",
";.	c #09354F",
">.	c #292929",
",.	c #ACACAC",
"'.	c #757575",
").	c #9AAEBA",
"!.	c #96ABB8",
"~.	c #072C43",
"{.	c #97AEBC",
"].	c #98B0BE",
"^.	c #0A324A",
"/.	c #104C70",
"(.	c #0E4668",
"_.	c #1F1F1F",
":.	c #B4B4B4",
"<.	c #95AAB8",
"[.	c #093047",
"}.	c #98B0BF",
"|.	c #99B2C0",
"1.	c #0C364F",
"2.	c #135378",
"3.	c #0E3F5B",
"4.	c #2B2B2B",
"5.	c #B2B2B2",
"6.	c #012D4B",
"7.	c #022237",
"8.	c #04263C",
"9.	c #0A324B",
"0.	c #99B2C1",
"a.	c #9AB4C4",
"b.	c #0E3B55",
"c.	c #165A81",
"d.	c #0A2B3E",
"e.	c #4B4B4B",
"f.	c #A9A9A9",
"g.	c #05283E",
"h.	c #0C354D",
"i.	c #0D3953",
"j.	c #0F3D57",
"k.	c #195F87",
"l.	c #155071",
"m.	c #212121",
"n.	c #093E5F",
"o.	c #135277",
"p.	c #16597F",
"q.	c #1A5E85",
"r.	c #092230",
"s.	c #424242",
"t.	c #BABABA",
"u.	c #797979",
"v.	c #7E7E7E",
"w.	c #2D2D2D",
"x.	c #939393",
"y.	c #858585",
"z.	c #9D9D9D",
"A.	c #848484",
"B.	c #9E9E9E",
"C.	c #8C8C8C",
"D.	c #686868",
"E.	c #000000",
"F.	c #04273D",
"G.	c #0F3C56",
"H.	c #1A5272",
"I.	c #24678B",
". . . . . . . . . . . . . . . . . . . . . . . . . ",
"+ + + + + + + + @ # $ % & * = - ; + + + + + + + + ",
"> > > > > > > , ' ) ! ~ { ] ^ / ( _ > > > > > > > ",
": : : : : : < [ } | 1 2 3 4 5 6 7 8 9 : : : : : : ",
"0 0 0 0 0 a [ b c d e f g h i j k l m n 0 0 0 0 0 ",
"o o o o # p } c q r s t u v w x y z A > B o o o o ",
"= = = = 8 ) | d r C D E F G H I J K L M 9 = = = = ",
"N N N N O ! 1 e P Q R S T U V W X Y Z ` @ N N N N ",
" . . . .O ~ 2 f ..+.@.#.$.%.&.*.=.-.;.>.,. . . . .",
"'.'.'.'.& { 3 g u F T ).!.~.{.].^./.(._.:.'.'.'.'.",
"'.'.'.'.8 ] 4 h v G U <.*.[.}.|.1.2.3.4.5.'.'.'.'.",
"'.'.'.'. .^ 5 i 6.7.8.&.{.9.0.a.b.c.d.e.f.'.'.'.'.",
"'.'.'.'.8 / 6 j x I g.*.].h.i.j.k.l.m.N 9 '.'.'.'.",
"'.'.'.'.'., 7 k y J n.=.^.o.p.k.q.r.s.t.u.'.'.'.'.",
"'.'.'.'.'.v.8 l z K Y -./.2.c.l.r.w.@ x.'.'.'.'.'.",
"'.'.'.'.'.'.y.m A L Z ;.(.3.d.m.s.@ z.'.'.'.'.'.'.",
"'.'.'.'.'.'.'.A.B.M ` >._.4.e.N t.x.'.'.'.'.'.'.'.",
"'.'.'.'.'.'.'.'.& C.B.,.:.5.f.9 u.'.'.'.'.'.'.'.'.",
"D.D.D.D.D.D.D.D.D.D.D.D.D.D.D.D.D.D.D.D.D.D.D.D.D.",
"E.E.E.E.E.E.E.E.E.E.E.E.E.E.E.E.E.E.E.E.E.E.E.E.E.",
"F.F.F.F.F.F.F.F.F.F.F.F.F.F.F.F.F.F.F.F.F.F.F.F.F.",
"G.G.G.G.G.G.G.G.G.G.G.G.G.G.G.G.G.G.G.G.G.G.G.G.G.",
"H.H.H.H.H.H.H.H.H.H.H.H.H.H.H.H.H.H.H.H.H.H.H.H.H.",
"I.I.I.I.I.I.I.I.I.I.I.I.I.I.I.I.I.I.I.I.I.I.I.I.I.",
"E.E.E.E.E.E.E.E.E.E.E.E.E.E.E.E.E.E.E.E.E.E.E.E.E."};
