/* XPM */
static char * maximize_activeup_xpm[] = {
"25 25 178 2",
"  	c None",
". 	c #F4F4F4",
"+ 	c #C6C6C6",
"@ 	c #C2C2C2",
"# 	c #ACACAC",
"$ 	c #9F9F9F",
"% 	c #999999",
"& 	c #9A9A9A",
"* 	c #AAAAAA",
"= 	c #B7B7B7",
"- 	c #C4C4C4",
"; 	c #BFBFBF",
"> 	c #A9A9A9",
", 	c #909090",
"' 	c #64727A",
") 	c #3F5869",
"! 	c #27475D",
"~ 	c #1F4259",
"{ 	c #29495F",
"] 	c #455E6F",
"^ 	c #73818A",
"/ 	c #B8B8B8",
"( 	c #9E9E9E",
"_ 	c #767C81",
": 	c #345062",
"< 	c #1D4057",
"[ 	c #002B48",
"} 	c #21455C",
"| 	c #3F5B6D",
"1 	c #959CA0",
"2 	c #B5B5B5",
"3 	c #B1B1B1",
"4 	c #A0A0A0",
"5 	c #757B80",
"6 	c #24455A",
"7 	c #09334F",
"8 	c #537083",
"9 	c #7D92A1",
"0 	c #6F8797",
"a 	c #46667B",
"b 	c #133F5B",
"c 	c #043554",
"d 	c #043555",
"e 	c #02304E",
"f 	c #2E4E64",
"g 	c #9AA1A5",
"h 	c #B4B4B4",
"i 	c #A7A7A7",
"j 	c #8B8B8B",
"k 	c #334F62",
"l 	c #8297A5",
"m 	c #74838E",
"n 	c #657884",
"o 	c #586E7C",
"p 	c #486271",
"q 	c #103349",
"r 	c #072C43",
"s 	c #0B4265",
"t 	c #043453",
"u 	c #445F72",
"v 	c #BABABA",
"w 	c #A2A2A2",
"x 	c #959595",
"y 	c #606D76",
"z 	c #1C3F56",
"A 	c #BDC9D1",
"B 	c #B9C6CE",
"C 	c #B3C3CC",
"D 	c #AEC0CB",
"E 	c #A4B9C5",
"F 	c #99B1C0",
"G 	c #0C344D",
"H 	c #0E496D",
"I 	c #25485F",
"J 	c #83919A",
"K 	c #B0B0B0",
"L 	c #8D8D8D",
"M 	c #3C5566",
"N 	c #748B9B",
"O 	c #667985",
"P 	c #B9C7CF",
"Q 	c #B3C4CD",
"R 	c #AFC1CC",
"S 	c #AABECA",
"T 	c #A5BCC9",
"U 	c #9BB5C5",
"V 	c #0F3C57",
"W 	c #185B83",
"X 	c #0B4365",
"Y 	c #526B7B",
"Z 	c #939393",
"` 	c #8C8C8C",
" .	c #25455B",
"..	c #668294",
"+.	c #59707E",
"@.	c #4D6778",
"#.	c #416073",
"$.	c #34576D",
"%.	c #295168",
"&.	c #A1BBCB",
"*.	c #9DBACA",
"=.	c #13435F",
"-.	c #1D6690",
";.	c #16587F",
">.	c #325368",
",.	c #8E8E8E",
"'.	c #ABBFCC",
").	c #A6BECC",
"!.	c #1F4B65",
"~.	c #9EBCCD",
"{.	c #9FBECF",
"].	c #164B69",
"^.	c #23719E",
"/.	c #206C98",
"(.	c #274A61",
"_.	c #C8C8C8",
":.	c #919191",
"<.	c #26475C",
"[.	c #A6BECB",
"}.	c #A2BCCC",
"|.	c #144763",
"1.	c #A0BFD1",
"2.	c #A1C2D4",
"3.	c #1A5272",
"4.	c #287CAB",
"5.	c #1E6993",
"6.	c #335469",
"7.	c #415A6B",
"8.	c #144867",
"9.	c #26495E",
"0.	c #274D64",
"a.	c #174B69",
"b.	c #A2C3D5",
"c.	c #A3C6D9",
"d.	c #1E597A",
"e.	c #2E87B9",
"f.	c #165980",
"g.	c #577080",
"h.	c #929292",
"i.	c #6C7982",
"j.	c #20435A",
"k.	c #0E3B55",
"l.	c #194F6E",
"m.	c #1C5676",
"n.	c #1F5B7D",
"o.	c #3290C3",
"p.	c #2A80B0",
"q.	c #284C63",
"r.	c #909DA6",
"s.	c #3C586A",
"t.	c #175A82",
"u.	c #287BAA",
"v.	c #2D86B7",
"w.	c #3392C6",
"x.	c #135379",
"y.	c #4C687A",
"z.	c #CFCFCF",
"A.	c #8E9599",
"B.	c #2C4C62",
"C.	c #35566B",
"D.	c #B4BABF",
"E.	c #9C9C9C",
"F.	c #949B9F",
"G.	c #415D70",
"H.	c #24475E",
"I.	c #B2B2B2",
"J.	c #9B9B9B",
"K.	c #B3B3B3",
"L.	c #818E97",
"M.	c #50697A",
"N.	c #315268",
"O.	c #C1C1C1",
"P.	c #7D7D7D",
"Q.	c #000000",
"R.	c #063858",
"S.	c #15567C",
"T.	c #2576A4",
"U.	c #3493C8",
". . . . . . . . . . . . . . . . . . . . . . . . . ",
"+ + + + + + + + @ # $ % & $ * = - + + + + + + + + ",
"; ; ; ; ; ; ; > , ' ) ! ~ { ] ^ # / ; ; ; ; ; ; ; ",
"= = = = = = ( _ : < [ [ [ [ [ } | 1 2 = = = = = = ",
"3 3 3 3 3 4 5 6 7 8 9 0 a b c d e f g h 3 3 3 3 3 ",
"> > > > i j k 7 l l m n o p q r s t u v * > > > > ",
"w w w w x y z 8 l m A B C D E F G H I J K w w w w ",
"& & & & L M [ 9 N O P Q R S T U V W X Y v & & & & ",
"Z Z Z Z `  .[ 0 ..+.@.#.$.%.&.*.=.-.;.>.@ Z Z Z Z ",
"` ` ` ` ,.< [ a o C R '.).!.~.{.].^./.(._.` ` ` ` ",
"` ` ` ` :.<.[ b p D S [.}.|.1.2.3.4.5.6._.` ` ` ` ",
"` ` ` ` Z 7.[ c 8.9.0.&.~.a.b.c.d.e.f.g.; ` ` ` ` ",
"` ` ` ` h.i.j.d r F k.*.{.l.m.n.o.p.q.r.# ` ` ` ` ",
"` ` ` ` ` $ s.e s G t.=.].u.v.o.w.x.y.z., ` ` ` ` ",
"` ` ` ` ` x A.B.t H W -.^.4.e.p.x.C.D.> ` ` ` ` ` ",
"` ` ` ` ` ` E.F.G.H.X ;./.5.f.q.y.D.I.` ` ` ` ` ` ",
"` ` ` ` ` ` ` J.K.L.M.N.(.6.g.r.z.> ` ` ` ` ` ` ` ",
"` ` ` ` ` ` ` ` ,.w h O._._.; # , ` ` ` ` ` ` ` ` ",
"P.P.P.P.P.P.P.P.P.P.P.P.P.P.P.P.P.P.P.P.P.P.P.P.P.",
"Q.Q.Q.Q.Q.Q.Q.Q.Q.Q.Q.Q.Q.Q.Q.Q.Q.Q.Q.Q.Q.Q.Q.Q.Q.",
"R.R.R.R.R.R.R.R.R.R.R.R.R.R.R.R.R.R.R.R.R.R.R.R.R.",
"S.S.S.S.S.S.S.S.S.S.S.S.S.S.S.S.S.S.S.S.S.S.S.S.S.",
"T.T.T.T.T.T.T.T.T.T.T.T.T.T.T.T.T.T.T.T.T.T.T.T.T.",
"U.U.U.U.U.U.U.U.U.U.U.U.U.U.U.U.U.U.U.U.U.U.U.U.U.",
"Q.Q.Q.Q.Q.Q.Q.Q.Q.Q.Q.Q.Q.Q.Q.Q.Q.Q.Q.Q.Q.Q.Q.Q.Q."};
