/* XPM */
static char * options_activeup_xpm[] = {
"25 25 169 2",
"  	c None",
". 	c #F4F4F4",
"+ 	c #C6C6C6",
"@ 	c #C2C2C2",
"# 	c #ACACAC",
"$ 	c #9F9F9F",
"% 	c #999999",
"& 	c #9A9A9A",
"* 	c #AAAAAA",
"= 	c #B7B7B7",
"- 	c #C4C4C4",
"; 	c #BFBFBF",
"> 	c #A9A9A9",
", 	c #909090",
"' 	c #64727A",
") 	c #3F5869",
"! 	c #27475D",
"~ 	c #1F4259",
"{ 	c #29495F",
"] 	c #455E6F",
"^ 	c #73818A",
"/ 	c #B8B8B8",
"( 	c #9E9E9E",
"_ 	c #767C81",
": 	c #345062",
"< 	c #1D4057",
"[ 	c #002B48",
"} 	c #21455C",
"| 	c #3F5B6D",
"1 	c #959CA0",
"2 	c #B5B5B5",
"3 	c #B1B1B1",
"4 	c #A0A0A0",
"5 	c #757B80",
"6 	c #24455A",
"7 	c #09334F",
"8 	c #537083",
"9 	c #7D92A1",
"0 	c #6F8797",
"a 	c #46667B",
"b 	c #133F5B",
"c 	c #043554",
"d 	c #043555",
"e 	c #02304E",
"f 	c #2E4E64",
"g 	c #9AA1A5",
"h 	c #B4B4B4",
"i 	c #A7A7A7",
"j 	c #8B8B8B",
"k 	c #334F62",
"l 	c #8297A5",
"m 	c #748B9B",
"n 	c #668294",
"o 	c #5A7B8F",
"p 	c #4A7088",
"q 	c #144867",
"r 	c #0B4365",
"s 	c #0B4265",
"t 	c #043453",
"u 	c #445F72",
"v 	c #BABABA",
"w 	c #A2A2A2",
"x 	c #959595",
"y 	c #606D76",
"z 	c #1C3F56",
"A 	c #668396",
"B 	c #5B7D92",
"C 	c #4F758E",
"D 	c #44708B",
"E 	c #2B5F7F",
"F 	c #114D72",
"G 	c #124F74",
"H 	c #0E496D",
"I 	c #25485F",
"J 	c #83919A",
"K 	c #B0B0B0",
"L 	c #8D8D8D",
"M 	c #3C5566",
"N 	c #59707E",
"O 	c #4D6778",
"P 	c #416073",
"Q 	c #34576D",
"R 	c #295168",
"S 	c #1D4963",
"T 	c #12425D",
"U 	c #1D658F",
"V 	c #185B83",
"W 	c #526B7B",
"X 	c #939393",
"Y 	c #8C8C8C",
"Z 	c #25455B",
"` 	c #586E7C",
" .	c #B3C3CC",
"..	c #AFC1CC",
"+.	c #ABBFCC",
"@.	c #A6BECC",
"#.	c #A2BCCC",
"$.	c #9EBCCD",
"%.	c #9FBECF",
"&.	c #164B69",
"*.	c #1D6690",
"=.	c #16587F",
"-.	c #325368",
";.	c #8E8E8E",
">.	c #23719E",
",.	c #206C98",
"'.	c #274A61",
").	c #C8C8C8",
"!.	c #919191",
"~.	c #26475C",
"{.	c #405D70",
"].	c #34566B",
"^.	c #1F4B65",
"/.	c #144763",
"(.	c #174B69",
"_.	c #194F6E",
":.	c #287BAA",
"<.	c #287CAB",
"[.	c #1E6993",
"}.	c #335469",
"|.	c #415A6B",
"1.	c #2D6689",
"2.	c #25668D",
"3.	c #1E6893",
"4.	c #277AA8",
"5.	c #2A81B1",
"6.	c #2D86B7",
"7.	c #2E87B9",
"8.	c #165980",
"9.	c #577080",
"0.	c #929292",
"a.	c #6C7982",
"b.	c #20435A",
"c.	c #1B638C",
"d.	c #216D99",
"e.	c #2677A5",
"f.	c #2F89BB",
"g.	c #3290C3",
"h.	c #2A80B0",
"i.	c #284C63",
"j.	c #909DA6",
"k.	c #3C586A",
"l.	c #175A82",
"m.	c #22709D",
"n.	c #3392C6",
"o.	c #135379",
"p.	c #4C687A",
"q.	c #CFCFCF",
"r.	c #8E9599",
"s.	c #2C4C62",
"t.	c #35566B",
"u.	c #B4BABF",
"v.	c #9C9C9C",
"w.	c #949B9F",
"x.	c #415D70",
"y.	c #24475E",
"z.	c #B2B2B2",
"A.	c #9B9B9B",
"B.	c #B3B3B3",
"C.	c #818E97",
"D.	c #50697A",
"E.	c #315268",
"F.	c #C1C1C1",
"G.	c #7D7D7D",
"H.	c #000000",
"I.	c #063858",
"J.	c #15567C",
"K.	c #2576A4",
"L.	c #3493C8",
". . . . . . . . . . . . . . . . . . . . . . . . . ",
"+ + + + + + + + @ # $ % & $ * = - + + + + + + + + ",
"; ; ; ; ; ; ; > , ' ) ! ~ { ] ^ # / ; ; ; ; ; ; ; ",
"= = = = = = ( _ : < [ [ [ [ [ } | 1 2 = = = = = = ",
"3 3 3 3 3 4 5 6 7 8 9 0 a b c d e f g h 3 3 3 3 3 ",
"> > > > i j k 7 l l m n o p q r s t u v * > > > > ",
"w w w w x y z 8 l m A B C D E F G H I J K w w w w ",
"& & & & L M [ 9 n N O P Q R S T U V r W v & & & & ",
"X X X X Y Z [ 0 `  ...+.@.#.$.%.&.*.=.-.@ X X X X ",
"Y Y Y Y ;.< [ a `  ...+.@.#.$.%.&.>.,.'.).Y Y Y Y ",
"Y Y Y Y !.~.[ b p {.].R ^./.(._.:.<.[.}.).Y Y Y Y ",
"Y Y Y Y X |.[ c q E 1.2.3.>.4.5.6.7.8.9.; Y Y Y Y ",
"Y Y Y Y 0.a.b.d r F =.c.d.e.5.f.g.h.i.j.# Y Y Y Y ",
"Y Y Y Y Y $ k.e s G l.U m.:.6.g.n.o.p.q., Y Y Y Y ",
"Y Y Y Y Y x r.s.t H V *.>.<.7.h.o.t.u.> Y Y Y Y Y ",
"Y Y Y Y Y Y v.w.x.y.r =.,.[.8.i.p.u.z.Y Y Y Y Y Y ",
"Y Y Y Y Y Y Y A.B.C.D.E.'.}.9.j.q.> Y Y Y Y Y Y Y ",
"Y Y Y Y Y Y Y Y ;.w h F.).).; # , Y Y Y Y Y Y Y Y ",
"G.G.G.G.G.G.G.G.G.G.G.G.G.G.G.G.G.G.G.G.G.G.G.G.G.",
"H.H.H.H.H.H.H.H.H.H.H.H.H.H.H.H.H.H.H.H.H.H.H.H.H.",
"I.I.I.I.I.I.I.I.I.I.I.I.I.I.I.I.I.I.I.I.I.I.I.I.I.",
"J.J.J.J.J.J.J.J.J.J.J.J.J.J.J.J.J.J.J.J.J.J.J.J.J.",
"K.K.K.K.K.K.K.K.K.K.K.K.K.K.K.K.K.K.K.K.K.K.K.K.K.",
"L.L.L.L.L.L.L.L.L.L.L.L.L.L.L.L.L.L.L.L.L.L.L.L.L.",
"H.H.H.H.H.H.H.H.H.H.H.H.H.H.H.H.H.H.H.H.H.H.H.H.H."};
