/* XPM */
static char * options_activeup_xpm[] = {
"25 25 172 2",
"  	c None",
". 	c #CBCBCB",
"+ 	c #A5A5A5",
"@ 	c #A2A2A2",
"# 	c #8F8F8F",
"$ 	c #848484",
"% 	c #7F7F7F",
"& 	c #808080",
"* 	c #858585",
"= 	c #8D8D8D",
"- 	c #989898",
"; 	c #A3A3A3",
"> 	c #9F9F9F",
", 	c #787878",
"' 	c #536069",
") 	c #344D5E",
"! 	c #204156",
"~ 	c #1A3D54",
"{ 	c #224258",
"] 	c #395263",
"^ 	c #606D76",
"/ 	c #999999",
"( 	c #62696D",
"_ 	c #2B4759",
": 	c #183B52",
"< 	c #00233C",
"[ 	c #001E35",
"} 	c #001C31",
"| 	c #1C3F56",
"1 	c #355063",
"2 	c #7C8287",
"3 	c #979797",
"4 	c #949494",
"5 	c #61686C",
"6 	c #1E3F54",
"7 	c #052B44",
"8 	c #324A5C",
"9 	c #4C5E6D",
"0 	c #445767",
"a 	c #2A4153",
"b 	c #0A283E",
"c 	c #02223A",
"d 	c #02253F",
"e 	c #012945",
"f 	c #26465C",
"g 	c #81878C",
"h 	c #969696",
"i 	c #8B8B8B",
"j 	c #737373",
"k 	c #2B4659",
"l 	c #506372",
"m 	c #4F6170",
"n 	c #465968",
"o 	c #3D5466",
"p 	c #375164",
"q 	c #2C4A60",
"r 	c #0B304A",
"s 	c #062D49",
"t 	c #052D49",
"u 	c #022C49",
"v 	c #385466",
"w 	c #9B9B9B",
"x 	c #878787",
"y 	c #7C7C7C",
"z 	c #4F5D66",
"A 	c #173B52",
"B 	c #3D5668",
"C 	c #375366",
"D 	c #304F65",
"E 	c #294B64",
"F 	c #19405C",
"G 	c #093553",
"H 	c #0A3655",
"I 	c #083553",
"J 	c #1F4259",
"K 	c #6D7B84",
"L 	c #939393",
"M 	c #757575",
"N 	c #324B5B",
"O 	c #364856",
"P 	c #2F4453",
"Q 	c #274051",
"R 	c #1F3C4E",
"S 	c #19394C",
"T 	c #103248",
"U 	c #0A2F47",
"V 	c #11496C",
"W 	c #0D4062",
"X 	c #063555",
"Y 	c #445D6E",
"Z 	c #9A9A9A",
"` 	c #7B7B7B",
" .	c #364854",
"..	c #A6B2BB",
"+.	c #A3B2BC",
"@.	c #A0B1BC",
"#.	c #9EB0BD",
"$.	c #9BB0BE",
"%.	c #99B0BF",
"&.	c #9AB2C1",
"*.	c #0D3651",
"=.	c #11496D",
"-.	c #0D4264",
";.	c #294A60",
">.	c #767676",
",.	c #15537A",
"'.	c #124F76",
").	c #20445B",
"!.	c #A7A7A7",
"~.	c #797979",
"{.	c #204056",
"].	c #263D4E",
"^.	c #1F3A4D",
"/.	c #12354C",
"(.	c #0C334B",
"_.	c #0E3751",
":.	c #0F3B55",
"<.	c #185B85",
"[.	c #185C85",
"}.	c #125077",
"|.	c #2B4B61",
"1.	c #A6A6A6",
"2.	c #7A7A7A",
"3.	c #364F60",
"4.	c #1B4765",
"5.	c #154869",
"6.	c #124B70",
"7.	c #185A83",
"8.	c #1A608B",
"9.	c #1C6490",
"0.	c #1D6592",
"a.	c #0E486C",
"b.	c #486172",
"c.	c #5A6770",
"d.	c #1A3D55",
"e.	c #0D3E5E",
"f.	c #10476A",
"g.	c #134F76",
"h.	c #175880",
"i.	c #1D6794",
"j.	c #206D9B",
"k.	c #1B638F",
"l.	c #21455C",
"m.	c #78858E",
"n.	c #324E60",
"o.	c #0D3F61",
"p.	c #145279",
"q.	c #2171A0",
"r.	c #0C466B",
"s.	c #3F5B6D",
"t.	c #ACACAC",
"u.	c #767C81",
"v.	c #24455A",
"w.	c #2C4D62",
"x.	c #959CA0",
"y.	c #828282",
"z.	c #7B8186",
"A.	c #365265",
"B.	c #1E4158",
"C.	c #959595",
"D.	c #818181",
"E.	c #6A7881",
"F.	c #435C6C",
"G.	c #294A5F",
"H.	c #777777",
"I.	c #A1A1A1",
"J.	c #686868",
"K.	c #000000",
"L.	c #04273D",
"M.	c #0F3C56",
"N.	c #1A5272",
"O.	c #24678B",
". . . . . . . . . . . . . . . . . . . . . . . . . ",
"+ + + + + + + + @ # $ % & * = - ; + + + + + + + + ",
"> > > > > > > = , ' ) ! ~ { ] ^ # / > > > > > > > ",
"/ / / / / / $ ( _ : < [ } [ < | 1 2 3 / / / / / / ",
"4 4 4 4 4 * 5 6 7 8 9 0 a b c d e f g h 4 4 4 4 4 ",
"= = = = i j k 7 l m n o p q r s t u v w = = = = = ",
"x x x x y z A 8 m n B C D E F G H I J K L x x x x ",
"& & & & M N < 9 o O P Q R S T U V W X Y Z & & & & ",
"` ` ` ` M 6 [ 0  ...+.@.#.$.%.&.*.=.-.;.@ ` ` ` ` ",
"M M M M >.: } a  ...+.@.#.$.%.&.*.,.'.).!.M M M M ",
"M M M M ~.{.[ b q ].^.S /.(._.:.<.[.}.|.1.M M M M ",
"M M M M 2.3.< c r F 4.5.6.,.7.8.9.0.a.b.> M M M M ",
"M M M M ~.c.d.d s G e.f.g.h.8.i.j.k.l.m.# M M M M ",
"M M M M M $ n.e t H o.V p.<.9.j.q.r.s.t., M M M M ",
"M M M M M y u.v.u I W =.,.[.0.k.r.w.x.= M M M M M ",
"M M M M M M y.z.A.B.X -.'.}.a.l.s.x.C.M M M M M M ",
"M M M M M M M D.C.E.F.G.).|.b.m.t.= M M M M M M M ",
"M M M M M M M M H.x h I.!.1.> # , M M M M M M M M ",
"J.J.J.J.J.J.J.J.J.J.J.J.J.J.J.J.J.J.J.J.J.J.J.J.J.",
"K.K.K.K.K.K.K.K.K.K.K.K.K.K.K.K.K.K.K.K.K.K.K.K.K.",
"L.L.L.L.L.L.L.L.L.L.L.L.L.L.L.L.L.L.L.L.L.L.L.L.L.",
"M.M.M.M.M.M.M.M.M.M.M.M.M.M.M.M.M.M.M.M.M.M.M.M.M.",
"N.N.N.N.N.N.N.N.N.N.N.N.N.N.N.N.N.N.N.N.N.N.N.N.N.",
"O.O.O.O.O.O.O.O.O.O.O.O.O.O.O.O.O.O.O.O.O.O.O.O.O.",
"K.K.K.K.K.K.K.K.K.K.K.K.K.K.K.K.K.K.K.K.K.K.K.K.K."};
