/* XPM */
static char * titleleft_inactive_xpm[] = {
"40 25 65 1",
" 	c None",
".	c #CBCBCB",
"+	c #9F9F9F",
"@	c #000000",
"#	c #002B48",
"$	c #A5A5A5",
"%	c #828282",
"&	c #071720",
"*	c #778690",
"=	c #8FA1AE",
"-	c #3F3F3F",
";	c #7D7D7D",
">	c #667784",
",	c #778691",
"'	c #999999",
")	c #D5D5D5",
"!	c #797979",
"~	c #556A78",
"{	c #667885",
"]	c #949494",
"^	c #747474",
"/	c #435C6C",
"(	c #556A79",
"_	c #8D8D8D",
":	c #D1D1D1",
"<	c #6E6E6E",
"[	c #002B47",
"}	c #445C6C",
"|	c #878787",
"1	c #696969",
"2	c #03314F",
"3	c #334E60",
"4	c #808080",
"5	c #656565",
"6	c #063857",
"7	c #7B7B7B",
"8	c #606060",
"9	c #093F5F",
"0	c #757575",
"a	c #5C5C5C",
"b	c #0D4668",
"c	c #104D70",
"d	c #053757",
"e	c #135378",
"f	c #083D5E",
"g	c #010608",
"h	c #175A81",
"i	c #0C4366",
"j	c #1A6189",
"k	c #0F496D",
"l	c #02070A",
"m	c #1D6891",
"n	c #125075",
"o	c #15567C",
"p	c #185C84",
"q	c #1B628B",
"r	c #686868",
"s	c #1E6893",
"t	c #216F9A",
"u	c #04273D",
"v	c #0F3C56",
"w	c #1A5272",
"x	c #C3C3C3",
"y	c #24678B",
"z	c #636363",
"...........+@@@@@@@@...+@@@@@@@...+@####",
"$$$$$$$$$$%&*******@.$$%@*****@.$$%@====",
"++-+-++++;&>>>>>>>>@.++;@>>>>>@.++;@,,,,",
"''')')''!&~~~~~~~~~@.''!@~~~~~@.''!@{{{{",
"]]-]]]]^&//////////@.]]^@/////@.]]^@((((",
"___:__<&[[[[[[[[[[[@.__<@[[[[[@.__<@}}}}",
"|||||1&222222222222@.||1@22222@.||1@3333",
"44445&6666666666666@.445@66666@.445@####",
"7778&99999999999999@.778@99999@.778@[[[[",
"000a&bbbbbbbbbbbbbb@.00a@bbbbb@.00a@2222",
"000a&cccccccccccccc@.00a@ccccc@.00a@dddd",
"000a&eeeeeeeeeeeeee@.00a@eeeee@.00a@ffff",
"000aghhhhhhhhhhhhhh@.00a@hhhhh@.00a@iiii",
"000a@jjjjjjjjjjjjjj@.00a@jjjjj@.00a@kkkk",
"000almmmmmmmmmmmmmm@.00a@mmmmm@.00a@nnnn",
"000a@@@@@@@@@@@@@@@@.00a@@@@@@@.00a@oooo",
"0000................0000.......000a@pppp",
"0000000000000000000000000000000000a@qqqq",
"rrrrrrrrrrrrrrrrrrrr00000000000000a@ssss",
"@@@@@@@@@@@@@@@@@@@@.0000000000000a@tttt",
"uuuuuuuuuuuuuuuuuuv@.0-0-0-0-0-000a@@@@@",
"vvvvvvvvvvvvvvvvvvw@.00x0x0x0x0x000.....",
"wwwwwwwwwwwwwwwwwwy@.0000000000000000000",
"yyyyyyyyyyyyyyyyyyy@0rrrrrrrrrrrrrrzrrrr",
"@@@@@@@@@@@@@@@@@@@@@@@@@@@@@@@@@@@@@@@@"};
