/* XPM */
static char * titleleft_active_xpm[] = {
"40 25 157 2",
"  	c None",
". 	c #F4F4F4",
"+ 	c #BFBFBF",
"@ 	c #000000",
"# 	c #004164",
"$ 	c #C6C6C6",
"% 	c #9C9C9C",
"& 	c #081B26",
"* 	c #4A545C",
"= 	c #6C7B86",
"- 	c #8A9DAB",
"; 	c #495259",
"> 	c #6D7B85",
", 	c #8394A0",
"' 	c #94AFBE",
") 	c #4C4C4C",
"! 	c #969696",
"~ 	c #3D4952",
"{ 	c #596B78",
"] 	c #697F8F",
"^ 	c #718899",
"/ 	c #8FA1AE",
"( 	c #B7B7B7",
"_ 	c #FFFFFF",
": 	c #919191",
"< 	c #2F3E49",
"[ 	c #455B6A",
"} 	c #526C7E",
"| 	c #587487",
"1 	c #3E4951",
"2 	c #5D6E7A",
"3 	c #708492",
"4 	c #7A909F",
"5 	c #B1B1B1",
"6 	c #8B8B8B",
"7 	c #1E303C",
"8 	c #2C4658",
"9 	c #345368",
"0 	c #385970",
"a 	c #34414A",
"b 	c #4E616F",
"c 	c #5E7585",
"d 	c #667F91",
"e 	c #A9A9A9",
"f 	c #FBFBFB",
"g 	c #848484",
"h 	c #001829",
"i 	c #00243B",
"j 	c #002B47",
"k 	c #012E4C",
"l 	c #073B5B",
"m 	c #293842",
"n 	c #3E5463",
"o 	c #4A6577",
"p 	c #516E82",
"q 	c #A2A2A2",
"r 	c #7E7E7E",
"s 	c #031F31",
"t 	c #052E47",
"u 	c #063755",
"v 	c #14547A",
"w 	c #1F2F3B",
"x 	c #2E4758",
"y 	c #385569",
"z 	c #3D5D73",
"A 	c #9A9A9A",
"B 	c #797979",
"C 	c #072538",
"D 	c #0A3752",
"E 	c #0C4162",
"F 	c #0D4669",
"G 	c #1A6088",
"H 	c #001624",
"I 	c #002137",
"J 	c #002742",
"K 	c #002B48",
"L 	c #939393",
"M 	c #737373",
"N 	c #0A2D42",
"O 	c #0F4260",
"P 	c #124E72",
"Q 	c #206C97",
"R 	c #021B2B",
"S 	c #032840",
"T 	c #03304D",
"U 	c #043554",
"V 	c #8C8C8C",
"W 	c #6E6E6E",
"X 	c #0E3349",
"Y 	c #144B6B",
"Z 	c #18597F",
"` 	c #2678A7",
" .	c #042031",
"..	c #063049",
"+.	c #083A58",
"@.	c #093F60",
"#.	c #113A51",
"$.	c #195577",
"%.	c #1D658D",
"&.	c #2D85B6",
"*.	c #072437",
"=.	c #0A3753",
"-.	c #0C4263",
";.	c #0E486C",
">.	c #14405A",
",.	c #1D5E83",
"'.	c #23709C",
").	c #3391C5",
"!.	c #092A3D",
"~.	c #0E3F5C",
"{.	c #114B6E",
"].	c #135278",
"^.	c #010709",
"/.	c #184762",
"(.	c #23688F",
"_.	c #2A7CAA",
":.	c #399DD3",
"<.	c #0C2F43",
"[.	c #124664",
"}.	c #165478",
"|.	c #185C83",
"1.	c #1B4E6A",
"2.	c #28729B",
"3.	c #2F87B8",
"4.	c #164D6D",
"5.	c #1A5D83",
"6.	c #1D658F",
"7.	c #02080C",
"8.	c #2C7BA6",
"9.	c #3593C5",
"0.	c #10394F",
"a.	c #1E668E",
"b.	c #216F9B",
"c.	c #133D55",
"d.	c #1D5C80",
"e.	c #236E99",
"f.	c #16425B",
"g.	c #216388",
"h.	c #2777A4",
"i.	c #2B82B2",
"j.	c #184761",
"k.	c #246B92",
"l.	c #2C81AF",
"m.	c #308CBE",
"n.	c #7D7D7D",
"o.	c #1B4C67",
"p.	c #3089BA",
"q.	c #3595CA",
"r.	c #2C7AA4",
"s.	c #3592C5",
"t.	c #3A9FD6",
"u.	c #063858",
"v.	c #15567C",
"w.	c #2576A4",
"x.	c #EAEAEA",
"y.	c #3493C8",
"z.	c #777777",
". . . . . . . . . . . + @ @ @ @ @ @ @ @ . . . + @ @ @ @ @ @ @ . . . + @ # # # # ",
"$ $ $ $ $ $ $ $ $ $ % & * = - - - - - @ . $ $ % @ * = - - - @ . $ $ % @ ; > , ' ",
"+ + ) + ) + + + + ! & ~ { ] ^ ^ ^ ^ - @ . + + ! @ ~ { ] ^ - @ . + + ! @ ; > , / ",
"( ( ( _ ( _ ( ( : & < [ } | | | | | ^ @ . ( ( : @ < [ } | ^ @ . ( ( : @ 1 2 3 4 ",
"5 5 ) 5 5 5 5 6 & 7 8 9 0 0 0 0 0 0 | @ . 5 5 6 @ 7 8 9 0 | @ . 5 5 6 @ a b c d ",
"e e e f e e g & h i j k k k k k k k l @ . e e g @ h i j k l @ . e e g @ m n o p ",
"q q q q q r & s t u l l l l l l l l v @ . q q r @ s t u l v @ . q q r @ w x y z ",
"A A A A B & C D E F F F F F F F F F G @ . A A B @ C D E F G @ . A A B @ H I J K ",
"L L L M & N O P v v v v v v v v v v Q @ . L L M @ N O P v Q @ . L L M @ R S T U ",
"V V V W & X Y Z G G G G G G G G G G ` @ . V V W @ X Y Z G ` @ . V V W @  ...+.@.",
"V V V W & #.$.%.Q Q Q Q Q Q Q Q Q Q &.@ . V V W @ #.$.%.Q &.@ . V V W @ *.=.-.;.",
"V V V W & >.,.'.` ` ` ` ` ` ` ` ` ` ).@ . V V W @ >.,.'.` ).@ . V V W @ !.~.{.].",
"V V V W ^./.(._.&.&.&.&.&.&.&.&.&.&.:.@ . V V W @ /.(._.&.:.@ . V V W @ <.[.}.|.",
"V V V W @ 1.2.3.).).).).).).).).).).:.@ . V V W @ 1.2.3.).:.@ . V V W @ X 4.5.6.",
"V V V W 7.8.9.:.:.:.:.:.:.:.:.:.:.:.:.@ . V V W @ 8.9.:.:.:.@ . V V W @ 0.$.a.b.",
"V V V W @ @ @ @ @ @ @ @ @ @ @ @ @ @ @ @ . V V W @ @ @ @ @ @ @ . V V W @ c.d.e.` ",
"V V V V . . . . . . . . . . . . . . . . V V V V . . . . . . . V V V W @ f.g.h.i.",
"V V V V V V V V V V V V V V V V V V V V V V V V V V V V V V V V V V W @ j.k.l.m.",
"n.n.n.n.n.n.n.n.n.n.n.n.n.n.n.n.n.n.n.n.V V V V V V V V V V V V V V W @ o.2.p.q.",
"@ @ @ @ @ @ @ @ @ @ @ @ @ @ @ @ @ @ @ @ . V V V V V V V V V V V V V W @ r.s.t.t.",
"u.u.u.u.u.u.u.u.u.u.u.u.u.u.u.u.u.u.v.@ . V ) V ) V ) V ) V ) V V V W @ @ @ @ @ ",
"v.v.v.v.v.v.v.v.v.v.v.v.v.v.v.v.v.v.w.@ . V V x.V x.V x.V x.V x.V V V . . . . . ",
"w.w.w.w.w.w.w.w.w.w.w.w.w.w.w.w.w.w.y.@ . V V V V V V V V V V V V V V V V V V V ",
"y.y.y.y.y.y.y.y.y.y.y.y.y.y.y.y.y.y.y.@ V n.n.n.n.n.n.n.n.n.n.n.n.n.n.z.n.n.n.n.",
"@ @ @ @ @ @ @ @ @ @ @ @ @ @ @ @ @ @ @ @ @ @ @ @ @ @ @ @ @ @ @ @ @ @ @ @ @ @ @ @ "};
