/* XPM */
static char * titleright_active_xpm[] = {
"43 25 62 1",
" 	c None",
".	c #004164",
"+	c #000000",
"@	c #F4F4F4",
"#	c #94AFBE",
"$	c #C6C6C6",
"%	c #8FA1AE",
"&	c #BFBFBF",
"*	c #7A909F",
"=	c #B7B7B7",
"-	c #667F91",
";	c #B1B1B1",
">	c #516E82",
",	c #A9A9A9",
"'	c #3D5D73",
")	c #A2A2A2",
"!	c #002B48",
"~	c #043554",
"{	c #9A9A9A",
"]	c #093F60",
"^	c #939393",
"/	c #0E486C",
"(	c #8C8C8C",
"_	c #135278",
":	c #185C83",
"<	c #1D658F",
"[	c #4C4C4C",
"}	c #216F9B",
"|	c #EAEAEA",
"1	c #2678A7",
"2	c #2B82B2",
"3	c #308CBE",
"4	c #399DD3",
"5	c #3595CA",
"6	c #7D7D7D",
"7	c #3A9FD6",
"8	c #001829",
"9	c #00243B",
"0	c #002B47",
"a	c #063858",
"b	c #FFFFFF",
"c	c #C4C4C4",
"d	c #D5D5D5",
"e	c #FCFCFC",
"f	c #FDFDFD",
"g	c #FEFEFE",
"h	c #0F4260",
"i	c #124E72",
"j	c #15567C",
"k	c #B5B5B5",
"l	c #717171",
"m	c #8D8D8D",
"n	c #BEBEBE",
"o	c #9C9C9C",
"p	c #838383",
"q	c #23709C",
"r	c #2576A4",
"s	c #646464",
"t	c #848484",
"u	c #747474",
"v	c #595959",
"w	c #3493C8",
"..................................+@@@@@@@@",
"##################################+@$$$$$$$",
"%%%%%%%%%%%%%%%%%%%%%%%%%%%%%%%%%%+@&&&&&&&",
"*********************************%+@=======",
"---------------------------------*+@;;;;;;;",
">>>>>>>>>>>>>>>>>>>>>>>>>>>>>>>>>-+@,,,,,,,",
"'''''''''''''''''''''''''''''''''>+@)))))))",
"!!!!!!!!!!!!!!!!!!!!!!!!!!!!!!!!~+@{{{{{{{{",
"~~~~~~~~~~~~~~~~~~~~~~~~~~~~~~~]+@^^^^^^^^^",
"]]]]]]]]]]]]]]]]]]]]]]]]]]]]]]/+@^(((((((((",
"/////////////////////////////_+@^((((((((((",
"____________________________:+@^(((((((((((",
":::::::::::::::::::::::::::<+@^(([([([(((((",
"<<<<<<<<<<<<<<<<<<<<<<<<<<}+@^((((|(|(|((((",
"}}}}}}}}}}}}}}}}}}}}}}}}}1+@^(([([([([(((((",
"1111111111111111111111112+@^((((|(|(|(|((((",
"222222222222222222222223+@^(([([(((((((((((",
"33333333333333333333334+@^((((|(|((((((((((",
"5555555555555555555554+@^(([([([(((66666666",
"777777777777777777774+@^((((|(|(|((++++++++",
"+++++++++++++++++++++@^(([([([([(((+890aaaa",
"@bbc@bbc@bbc@bbdefgbb^((((|(|(|(|((+9hijjjj",
"(k(l(k(l(k(lmnop(((((((((((((((((((+0iqrrrr",
"6,s[6,s[6,s[t&uv6666666666666666666+ajrwwww",
"+++++++++++++++++++++++++++++++++++++++++++"};
