/* XPM */
static char * titleunder_inactive_xpm[] = {
"12 25 24 1",
" 	c None",
".	c #002B48",
"+	c #8FA1AE",
"@	c #778691",
"#	c #667885",
"$	c #556A79",
"%	c #445C6C",
"&	c #334E60",
"*	c #002B47",
"=	c #03314F",
"-	c #053757",
";	c #083D5E",
">	c #0C4366",
",	c #0F496D",
"'	c #125075",
")	c #15567C",
"!	c #185C84",
"~	c #1B628B",
"{	c #1E6893",
"]	c #216F9A",
"^	c #000000",
"/	c #CBCBCB",
"(	c #757575",
"_	c #686868",
"............",
"++++++++++++",
"@@@@@@@@@@@@",
"############",
"$$$$$$$$$$$$",
"%%%%%%%%%%%%",
"&&&&&&&&&&&&",
"............",
"************",
"============",
"------------",
";;;;;;;;;;;;",
">>>>>>>>>>>>",
",,,,,,,,,,,,",
"''''''''''''",
"))))))))))))",
"!!!!!!!!!!!!",
"~~~~~~~~~~~~",
"{{{{{{{{{{{{",
"]]]]]]]]]]]]",
"^^^^^^^^^^^^",
"////////////",
"((((((((((((",
"____________",
"^^^^^^^^^^^^"};
