/* XPM */
static char * titleright_inactive_xpm[] = {
"43 25 60 1",
" 	c None",
".	c #002B48",
"+	c #000000",
"@	c #CBCBCB",
"#	c #8FA1AE",
"$	c #A5A5A5",
"%	c #778691",
"&	c #9F9F9F",
"*	c #667885",
"=	c #999999",
"-	c #556A79",
";	c #949494",
">	c #445C6C",
",	c #8D8D8D",
"'	c #334E60",
")	c #878787",
"!	c #808080",
"~	c #002B47",
"{	c #7B7B7B",
"]	c #03314F",
"^	c #757575",
"/	c #053757",
"(	c #083D5E",
"_	c #0C4366",
":	c #3F3F3F",
"<	c #0F496D",
"[	c #C3C3C3",
"}	c #125075",
"|	c #15567C",
"1	c #185C84",
"2	c #1B628B",
"3	c #1E6893",
"4	c #686868",
"5	c #216F9A",
"6	c #00111C",
"7	c #001929",
"8	c #001E31",
"9	c #04273D",
"0	c #D5D5D5",
"a	c #A3A3A3",
"b	c #B2B2B2",
"c	c #D2D2D2",
"d	c #D3D3D3",
"e	c #D4D4D4",
"f	c #0B2E43",
"g	c #0D364F",
"h	c #0F3C56",
"i	c #979797",
"j	c #5E5E5E",
"k	c #767676",
"l	c #9E9E9E",
"m	c #828282",
"n	c #6D6D6D",
"o	c #184E6C",
"p	c #1A5272",
"q	c #535353",
"r	c #6E6E6E",
"s	c #616161",
"t	c #4A4A4A",
"u	c #24678B",
"..................................+@@@@@@@@",
"##################################+@$$$$$$$",
"%%%%%%%%%%%%%%%%%%%%%%%%%%%%%%%%%%+@&&&&&&&",
"**********************************+@=======",
"----------------------------------+@;;;;;;;",
">>>>>>>>>>>>>>>>>>>>>>>>>>>>>>>>>>+@,,,,,,,",
"''''''''''''''''''''''''''''''''''+@)))))))",
".................................+@!!!!!!!!",
"~~~~~~~~~~~~~~~~~~~~~~~~~~~~~~~~+@{{{{{{{{{",
"]]]]]]]]]]]]]]]]]]]]]]]]]]]]]]]+@{^^^^^^^^^",
"//////////////////////////////+@{^^^^^^^^^^",
"(((((((((((((((((((((((((((((+@{^^^^^^^^^^^",
"____________________________+@{^^:^:^:^^^^^",
"<<<<<<<<<<<<<<<<<<<<<<<<<<<+@{^^^^[^[^[^^^^",
"}}}}}}}}}}}}}}}}}}}}}}}}}}+@{^^:^:^:^:^^^^^",
"|||||||||||||||||||||||||+@{^^^^[^[^[^[^^^^",
"111111111111111111111111+@{^^:^:^^^^^^^^^^^",
"22222222222222222222222+@{^^^^[^[^^^^^^^^^^",
"3333333333333333333333+@{^^:^:^:^^^44444444",
"555555555555555555555+@{^^^^[^[^[^^4+++++++",
"+++++++++++++++++++++@{^^:^:^:^:^^^4+678999",
"@00a@00a@00a@00bcde00{^^^^[^[^[^[^^4+7fghhh",
"^i^j^i^j^i^jklmn^^^^^^^^^^^^^^^^^^^4+8goppp",
"4,q:4,q:4,q:r&st44444444444444444444+9hpuuu",
"+++++++++++++++++++++++++++++++++++++++++++"};
