/* XPM */
static char * close_activeup_xpm[] = {
"21 21 31 1",
" 	c None",
".	c #EDEAEB",
"+	c #F5F3F2",
"@	c #E3E2DF",
"#	c #EDEDEB",
"$	c #F7F7F6",
"%	c #888888",
"&	c #CCCCCC",
"*	c #FAFAFA",
"=	c #222222",
"-	c #FFFFFF",
";	c #E9EAE8",
">	c #D8D9D7",
",	c #999999",
"'	c #AAAAAA",
")	c #BBBBBB",
"!	c #CACBC9",
"~	c #C4C4C3",
"{	c #DDDDDD",
"]	c #BEBCBD",
"^	c #B8B5B7",
"/	c #EEEEEE",
"(	c #B0ACAF",
"_	c #A2A0A1",
":	c #939494",
"<	c #858886",
"[	c #787C79",
"}	c #737773",
"|	c #6D716C",
"1	c #464945",
"2	c #3D403C",
".....................",
"+++++++++++++++++++++",
"@@@@@@@@@@@@@@@@@@@@@",
"#####################",
"$$$$%%%%%%%%%%%%&$$$$",
"****%===========-****",
";;;;%=-&&&&&&&&=-;;;;",
">>>>%=&,,''))&%=->>>>",
"!!!!%=&,''))&&%=-!!!!",
"~~~~%=&''))&&{%=-~~~~",
"]]]]%=&'))&&{{%=-]]]]",
"^^^^%=&))&&{{/%=-^^^^",
"((((%=&)&&{{//%=-((((",
"____%=&&&{{//-%=-____",
"::::%=&%%%%%%%%=-::::",
"<<<<%===========-<<<<",
"[[[[&------------[[[[",
"}}}}}}}}}}}}}}}}}}}}}",
"|||||||||||||||||||||",
"111111111111111111111",
"222222222222222222222"};
