/* XPM */
static char * iconify_activedown_xpm[] = {
"21 21 33 1",
" 	c None",
".	c #EDEAEB",
"+	c #F5F3F2",
"@	c #E3E2DF",
"#	c #EDEDEB",
"$	c #F7F7F6",
"%	c #888888",
"&	c #CCCCCC",
"*	c #FAFAFA",
"=	c #222222",
"-	c #FFFFFF",
";	c #E9EAE8",
">	c #444444",
",	c #555555",
"'	c #666666",
")	c #777777",
"!	c #D8D9D7",
"~	c #CACBC9",
"{	c #999999",
"]	c #C4C4C3",
"^	c #BEBCBD",
"/	c #B8B5B7",
"(	c #AAAAAA",
"_	c #B0ACAF",
":	c #A2A0A1",
"<	c #BBBBBB",
"[	c #939494",
"}	c #858886",
"|	c #787C79",
"1	c #737773",
"2	c #6D716C",
"3	c #464945",
"4	c #3D403C",
".....................",
"+++++++++++++++++++++",
"@@@@@@@@@@@@@@@@@@@@@",
"#####################",
"$$$$%%%%%%%%%%%%&$$$$",
"****%===========-****",
";;;;%=>>,,''))%=-;;;;",
"!!!!%=>,,''))%%=-!!!!",
"~~~~%=,,''))%%{=-~~~~",
"]]]]%=,''))%%{{=-]]]]",
"^^^^%=''))%%{{{=-^^^^",
"////%='))%%{{({=-////",
"____%=))=====({=-____",
"::::%=)%%{{((<{=-::::",
"[[[[%=%%{{{{{{{=-[[[[",
"}}}}%===========-}}}}",
"||||&------------||||",
"111111111111111111111",
"222222222222222222222",
"333333333333333333333",
"444444444444444444444"};
