/* XPM */
static char * titlert_inactive_xpm[] = {
"8 21 73 1",
" 	c None",
".	c #EDEAEB",
"+	c #F5F3F2",
"@	c #969593",
"#	c #9A9997",
"$	c #E2E1DE",
"%	c #E3E2DF",
"&	c #3C3A3B",
"*	c #494849",
"=	c #A6A6A5",
"-	c #A1A1A0",
";	c #ECECEA",
">	c #EDEDEB",
",	c #6E6E6C",
"'	c #464644",
")	c #525251",
"!	c #AEAEAE",
"~	c #F6F6F5",
"{	c #F7F7F6",
"]	c #777776",
"^	c #767676",
"/	c #595958",
"(	c #B0B0B0",
"_	c #F9F9F9",
":	c #FAFAFA",
"<	c #7E7E7D",
"[	c #616160",
"}	c #FFFFFF",
"|	c #E8E9E7",
"1	c #777777",
"2	c #A9A9A9",
"3	c #9C9C9B",
"4	c #D7D8D6",
"5	c #6B6B6A",
"6	c #545454",
"7	c #ECEDEB",
"8	c #636463",
"9	c #A0A0A0",
"0	c #EBEBEB",
"a	c #5F5E5F",
"b	c #9E9D9E",
"c	c #E6E5E5",
"d	c #5B595B",
"e	c #9C9B9C",
"f	c #E1DFE0",
"g	c #525152",
"h	c #E4E3E4",
"i	c #D9D5D8",
"j	c #484948",
"k	c #8D8E8D",
"l	c #A19FA0",
"m	c #3E403F",
"n	c #D2D4D3",
"o	c #C1C2C2",
"p	c #929393",
"q	c #3A3C3A",
"r	c #CED0CE",
"s	c #858786",
"t	c #858886",
"u	c #363836",
"v	c #7E7F7E",
"w	c #CBCCCB",
"x	c #787C79",
"y	c #7B7C7A",
"z	c #C8CAC7",
"A	c #A6A9A6",
"B	c #737773",
"C	c #A1A4A0",
"D	c #9FA29E",
"E	c #6D716C",
"F	c #6C706B",
"G	c #464945",
"H	c #3D403C",
"........",
"++++++++",
"@#$$%%%%",
"&*=-;>>>",
",,')!~{{",
"]^^]/(_:",
"<<<<<[}|",
"11111234",
"55555567",
"88888890",
"aaaaaabc",
"ddddddef",
"gggggghi",
"jjjjjk}l",
"mmmmmnop",
"qqqqr}st",
"uuvw}xxx",
"yz}ABBBB",
"CDEFEEEE",
"GGGGGGGG",
"HHHHHHHH"};
