/* XPM */
static char * titlelt_active_xpm[] = {
"8 21 87 1",
" 	c None",
".	c #EDEAEB",
"+	c #F5F3F2",
"@	c #E3E2DF",
"#	c #E2E1DE",
"$	c #999896",
"%	c #969593",
"&	c #EDEDEB",
"*	c #ECECEA",
"=	c #9F9F9E",
"-	c #60605F",
";	c #00481C",
">	c #05441D",
",	c #F7F7F6",
"'	c #F6F6F5",
")	c #646464",
"!	c #1F5D0E",
"~	c #255A15",
"{	c #39991C",
"]	c #FAFAFA",
"^	c #F9F9F9",
"/	c #656565",
"(	c #466520",
"_	c #7ED112",
":	c #7FD312",
"<	c #E8E9E7",
"[	c #9C9D9C",
"}	c #5F6657",
"|	c #A5E758",
"1	c #A7EB56",
"2	c #D7D8D6",
"3	c #575857",
"4	c #949B8A",
"5	c #ACE661",
"6	c #ADEA5D",
"7	c #888987",
"8	c #5A664C",
"9	c #A1E944",
"0	c #A2EC43",
"a	c #828281",
"b	c #546441",
"c	c #96E92A",
"d	c #97EB2A",
"e	c #7E7D7D",
"f	c #4F6433",
"g	c #89E314",
"h	c #8AE514",
"i	c #7A7879",
"j	c #486324",
"k	c #7CCD12",
"l	c #7CCE11",
"m	c #787577",
"n	c #4D711E",
"o	c #6DB60F",
"p	c #6EB80F",
"q	c #A19FA0",
"r	c #757474",
"s	c #3A620F",
"t	c #5CA112",
"u	c #5CA111",
"v	c #929393",
"w	c #646565",
"x	c #38641D",
"y	c #4A921F",
"z	c #4A931E",
"A	c #858886",
"B	c #848785",
"C	c #636564",
"D	c #2C5D24",
"E	c #38842B",
"F	c #38862B",
"G	c #787C79",
"H	c #5B5D5B",
"I	c #21582D",
"J	c #32AD49",
"K	c #247533",
"L	c #737773",
"M	c #A0A3A0",
"N	c #595B59",
"O	c #134E32",
"P	c #319C66",
"Q	c #6D716C",
"R	c #6C706B",
"S	c #9C9F9B",
"T	c #A1A4A0",
"U	c #464945",
"V	c #3D403C",
"........",
"++++++++",
"@@@@##$%",
"&&&*=-;>",
",,')!~{{",
"]^/(___:",
"<[}||111",
"23456666",
"78990000",
"abcddddd",
"efghhhhh",
"ijklllll",
"mnoopppp",
"qrstuuuu",
"vwxyyzzz",
"ABCDEEEF",
"GGGHIJKK",
"LLLLMNOP",
"QQQQRQST",
"UUUUUUUU",
"VVVVVVVV"};
