/* XPM */
static char * titlert_active_xpm[] = {
"8 21 84 1",
" 	c None",
".	c #EDEAEB",
"+	c #F5F3F2",
"@	c #969593",
"#	c #9A9997",
"$	c #E2E1DE",
"%	c #E3E2DF",
"&	c #05441D",
"*	c #0C5126",
"=	c #A6A6A5",
"-	c #A1A1A0",
";	c #ECECEA",
">	c #EDEDEB",
",	c #39991C",
"'	c #265C15",
")	c #2E671C",
"!	c #AEAEAE",
"~	c #F6F6F5",
"{	c #F7F7F6",
"]	c #7FD312",
"^	c #7ED112",
"/	c #557332",
"(	c #B0B0B0",
"_	c #F9F9F9",
":	c #FAFAFA",
"<	c #A7EB56",
"[	c #A5E758",
"}	c #ABB69E",
"|	c #FFFFFF",
"1	c #E8E9E7",
"2	c #ADEA5D",
"3	c #ACE661",
"4	c #AFAFAF",
"5	c #9C9C9B",
"6	c #D7D8D6",
"7	c #A2EC43",
"8	c #A1E944",
"9	c #708259",
"0	c #ECEDEB",
"a	c #97EB2A",
"b	c #96E92A",
"c	c #E5EF4A",
"d	c #EBEBEB",
"e	c #8AE514",
"f	c #8AE415",
"g	c #C9EE35",
"h	c #E6E5E5",
"i	c #7CCE11",
"j	c #7CCD12",
"k	c #BBED22",
"l	c #E1DFE0",
"m	c #6EB80F",
"n	c #6DB60F",
"o	c #EFED3E",
"p	c #D9D5D8",
"q	c #5CA111",
"r	c #5CA112",
"s	c #93DE11",
"t	c #A19FA0",
"u	c #4A931E",
"v	c #4A921F",
"w	c #E0EF3E",
"x	c #C1C2C2",
"y	c #929393",
"z	c #38862B",
"A	c #38842B",
"B	c #84EF4A",
"C	c #858786",
"D	c #858886",
"E	c #247533",
"F	c #257634",
"G	c #29C847",
"H	c #43EF8B",
"I	c #787C79",
"J	c #30A16B",
"K	c #31EEC4",
"L	c #A6A9A6",
"M	c #737773",
"N	c #A1A4A0",
"O	c #9FA29E",
"P	c #6D716C",
"Q	c #6C706B",
"R	c #464945",
"S	c #3D403C",
"........",
"++++++++",
"@#$$%%%%",
"&*=-;>>>",
",,')!~{{",
"]^^^/(_:",
"<<<[[}|1",
"22223456",
"77778890",
"aaaaabcd",
"eeeeefgh",
"iiiiijkl",
"mmmmnnop",
"qqqqrs4t",
"uuuvvwxy",
"zAAAB4CD",
"EFGH4III",
"JK4LMMMM",
"NOPQPPPP",
"RRRRRRRR",
"SSSSSSSS"};
