/* XPM */
static char * titleleft_active_xpm[] = {
"12 21 77 1",
" 	c None",
".	c #A19FA0",
"+	c #A4A2A3",
"@	c #FEFEFE",
"#	c #A5A3A4",
"$	c #A3A2A1",
"%	c #A6A5A4",
"&	c #969694",
"*	c #9A9997",
"=	c #FFFFFF",
"-	c #9D9D9C",
";	c #A0A09F",
">	c #A3A3A3",
",	c #A7A7A6",
"'	c #A5A5A5",
")	c #A9A9A9",
"!	c #9A9B9A",
"~	c #9E9E9D",
"{	c #8F908E",
"]	c #929391",
"^	c #F9FAF8",
"/	c #FCFDFC",
"(	c #868785",
"_	c #898988",
":	c #EDEEEC",
"<	c #F0F1F0",
"[	c #828281",
"}	c #858584",
"|	c #E8E8E7",
"1	c #EBEBEA",
"2	c #7E7D7D",
"3	c #817F80",
"4	c #E3E1E2",
"5	c #E6E4E5",
"6	c #7A7879",
"7	c #7D7B7C",
"8	c #DEDBDD",
"9	c #E1DEE0",
"0	c #757274",
"a	c #777577",
"b	c #D7D3D6",
"c	c #DAD7D9",
"d	c #6C6A6B",
"e	c #6E6D6D",
"f	c #CBC9CA",
"g	c #CECCCD",
"h	c #626262",
"i	c #646565",
"j	c #BEBFBF",
"k	c #C1C2C2",
"l	c #595B59",
"m	c #5B5D5B",
"n	c #B2B4B3",
"o	c #B5B8B6",
"p	c #505351",
"q	c #525452",
"r	c #A6AAA7",
"s	c #AAADAB",
"t	c #4D4F4D",
"u	c #4E514E",
"v	c #A2A6A2",
"w	c #A6A9A6",
"x	c #494B48",
"y	c #4A4D4A",
"z	c #9DA09C",
"A	c #A0A4A0",
"B	c #2F312E",
"C	c #303230",
"D	c #7A7D79",
"E	c #797B78",
"F	c #30322F",
"G	c #7C7F7B",
"H	c #2A2C29",
"I	c #2B2D2B",
"J	c #747572",
"K	c #717270",
"L	c #2B2D2A",
".+@@#+@@#+@@",
"$%@@%%@@%%@@",
"&*==**==**==",
"-;==;;==;;==",
">,==,,==,,==",
"')==))==))==",
"!~==~~==~~==",
"{]^^]]^^]]^/",
"(_::__::__:<",
"[}||}}||}}|1",
"234433443345",
"678877887789",
"0abbaabbaabc",
"deffeeffeefg",
"hijjiijjiijk",
"lmnnmmnnmmno",
"pqrrqqrrqqrs",
"tuvvuuvvuuvw",
"xyzzyyzzyyzA",
"BCDEFCDEFCDG",
"HIJKLIJKLIJK"};
