/* XPM */
static char * titlelt_inactive_xpm[] = {
"8 21 80 1",
" 	c None",
".	c #EDEAEB",
"+	c #F5F3F2",
"@	c #E3E2DF",
"#	c #E2E1DE",
"$	c #999896",
"%	c #969593",
"&	c #EDEDEB",
"*	c #ECECEA",
"=	c #9F9F9E",
"-	c #60605F",
";	c #272626",
">	c #3B3A3A",
",	c #F7F7F6",
"'	c #F6F6F5",
")	c #646464",
"!	c #2C2C2B",
"~	c #444442",
"{	c #6D6D6B",
"]	c #FAFAFA",
"^	c #F9F9F9",
"/	c #656565",
"(	c #2F2F2E",
"_	c #767675",
":	c #767676",
"<	c #777776",
"[	c #E8E9E7",
"}	c #9C9D9C",
"|	c #323232",
"1	c #7D7D7C",
"2	c #7E7E7D",
"3	c #D7D8D6",
"4	c #575857",
"5	c #494949",
"6	c #777777",
"7	c #888987",
"8	c #2B2B2A",
"9	c #6A6A69",
"0	c #6B6B6A",
"a	c #828281",
"b	c #3C3D3C",
"c	c #636363",
"d	c #636463",
"e	c #7E7D7D",
"f	c #3A393A",
"g	c #5F5E5F",
"h	c #7A7879",
"i	c #383738",
"j	c #5B595B",
"k	c #787577",
"l	c #403F40",
"m	c #525152",
"n	c #A19FA0",
"o	c #757474",
"p	c #2E2F2E",
"q	c #484948",
"r	c #929393",
"s	c #646565",
"t	c #333433",
"u	c #3E403F",
"v	c #858886",
"w	c #848785",
"x	c #636564",
"y	c #313231",
"z	c #3A3C3A",
"A	c #787C79",
"B	c #5B5D5B",
"C	c #727472",
"D	c #363836",
"E	c #737773",
"F	c #A0A3A0",
"G	c #595B59",
"H	c #2F302E",
"I	c #777976",
"J	c #6D716C",
"K	c #6C706B",
"L	c #9C9F9B",
"M	c #A1A4A0",
"N	c #464945",
"O	c #3D403C",
"........",
"++++++++",
"@@@@##$%",
"&&&*=-;>",
",,')!~{{",
"]^/(__:<",
"[}|11222",
"345:6666",
"78900000",
"abcddddd",
"efgggggg",
"hijjjjjj",
"klmmmmmm",
"nopqqqqq",
"rstuuuuu",
"vwxyzzzz",
"AAAByCDD",
"EEEEFGHI",
"JJJJKJLM",
"NNNNNNNN",
"OOOOOOOO"};
