/* XPM */
static char * close_inactive_xpm[] = {
"24 24 182 2",
"  	c None",
". 	c #ECECEC",
"+ 	c #E7E7E7",
"@ 	c #D8D8D8",
"# 	c #CBCBCB",
"$ 	c #C1C1C1",
"% 	c #BBBBBB",
"& 	c #BDBDBD",
"* 	c #C4C4C4",
"= 	c #CFCFCF",
"- 	c #DFDFDF",
"; 	c #EBEBEB",
"> 	c #E0E0E0",
", 	c #CCCCCC",
"' 	c #BFBFBF",
") 	c #BCBBBC",
"! 	c #BABABA",
"~ 	c #BCBCBC",
"{ 	c #C3C3C3",
"] 	c #D5D5D5",
"^ 	c #EAEAEA",
"/ 	c #C2C2C2",
"( 	c #B8B8B8",
"_ 	c #B1B1B1",
": 	c #ADADAD",
"< 	c #ACACAD",
"[ 	c #B2B2B2",
"} 	c #B9BAB9",
"| 	c #BCBBBB",
"1 	c #E4E4E4",
"2 	c #DAD9DA",
"3 	c #BFBFC0",
"4 	c #BDBDBC",
"5 	c #AEADAD",
"6 	c #A3A3A3",
"7 	c #B2B2B3",
"8 	c #A6A6A7",
"9 	c #9F9F9F",
"0 	c #AFAEAE",
"a 	c #CACACA",
"b 	c #E1E1E1",
"c 	c #C8C7C8",
"d 	c #A8A8A7",
"e 	c #B5B5B4",
"f 	c #DADADA",
"g 	c #E6E6E6",
"h 	c #E9E9E9",
"i 	c #E5E6E5",
"j 	c #DFDFDE",
"k 	c #C5C5C5",
"l 	c #A1A1A2",
"m 	c #A8A9A9",
"n 	c #C1C2C0",
"o 	c #C1C1C0",
"p 	c #D3D3D3",
"q 	c #E8E8E8",
"r 	c #D4D4D4",
"s 	c #C7C6C6",
"t 	c #ABABAB",
"u 	c #C0C0C0",
"v 	c #F1F1F1",
"w 	c #F8F8F8",
"x 	c #F7F7F7",
"y 	c #F6F6F6",
"z 	c #F6F7F7",
"A 	c #F2F2F2",
"B 	c #A8A8A8",
"C 	c #AEAEAE",
"D 	c #C6C6C6",
"E 	c #DEDEDE",
"F 	c #CFCECF",
"G 	c #CDCCCC",
"H 	c #B5B5B5",
"I 	c #E3E5EA",
"J 	c #5171B6",
"K 	c #889CCA",
"L 	c #EFEFEF",
"M 	c #8EA1CC",
"N 	c #6883BE",
"O 	c #A2A2A2",
"P 	c #D2D2D2",
"Q 	c #D0CFCF",
"R 	c #B0B0B0",
"S 	c #D6D6D6",
"T 	c #EAEAEB",
"U 	c #617DBB",
"V 	c #3057AB",
"W 	c #98A9CD",
"X 	c #CED3DF",
"Y 	c #3056AA",
"Z 	c #5876B7",
"` 	c #AFAFAF",
" .	c #E2E1E2",
"..	c #E5E5E5",
"+.	c #DAD9D9",
"@.	c #D4D3D3",
"#.	c #E0E0E1",
"$.	c #4163B0",
"%.	c #B9C1D4",
"&.	c #3157AA",
"*.	c #365AAB",
"=.	c #D4D5D4",
"-.	c #A1A1A1",
";.	c #DCDCDC",
">.	c #D8D8D9",
",.	c #E1E0E0",
"'.	c #DFDFE0",
").	c #D9D8D9",
"!.	c #D9D9D9",
"~.	c #4365AF",
"{.	c #3D5FAD",
"].	c #C8C8C8",
"^.	c #C7C7C7",
"/.	c #ABACAC",
"(.	c #A4A5A5",
"_.	c #E3E3E3",
":.	c #E2E2E2",
"<.	c #E4E3E3",
"[.	c #E7E5E6",
"}.	c #E1DFE0",
"|.	c #B3B3B2",
"1.	c #D3D4D4",
"2.	c #D0D0D0",
"3.	c #3B5EAC",
"4.	c #3055AA",
"5.	c #385BAA",
"6.	c #ACABAB",
"7.	c #A5A5A5",
"8.	c #E9EAEA",
"9.	c #E5E4E4",
"0.	c #ECECEB",
"a.	c #ACACAB",
"b.	c #CCCDCD",
"c.	c #3A5DAC",
"d.	c #B4B9C4",
"e.	c #3055A9",
"f.	c #2F55A9",
"g.	c #C8C9C8",
"h.	c #C9CAC9",
"i.	c #AAAAA9",
"j.	c #EFF0EF",
"k.	c #E9EAE9",
"l.	c #E2E3E3",
"m.	c #F0F0F1",
"n.	c #C0C3CA",
"o.	c #C2C5CA",
"p.	c #CDCDCD",
"q.	c #A4AEC3",
"r.	c #BDC2CB",
"s.	c #C1C2C1",
"t.	c #AAAAAA",
"u.	c #F2F3F3",
"v.	c #EBECEB",
"w.	c #DDDDDD",
"x.	c #EEEEED",
"y.	c #F8F7F7",
"z.	c #DDDCDB",
"A.	c #D5D5D6",
"B.	c #EDEEEE",
"C.	c #F5F4F4",
"D.	c #F9F8F8",
"E.	c #F9F9F9",
"F.	c #B3B2B3",
"G.	c #D7D7D7",
"H.	c #B5B4B5",
"I.	c #FDFDFD",
"J.	c #EFEEEF",
"K.	c #DBDBDB",
"L.	c #FCFBFC",
"M.	c #B3B3B3",
"N.	c #DCDDDC",
"O.	c #FFFFFF",
"P.	c #E1E1E2",
"Q.	c #FCFCFC",
"R.	c #BEBEBE",
"S.	c #F0F0F0",
"T.	c #F3F3F3",
"U.	c #EEEEEE",
"V.	c #FBFBFB",
"W.	c #F4F4F4",
"X.	c #CCCDCF",
"Y.	c #3C3C3C",
". . . . . . . . . . . . . . . . . . . . . . . . ",
". . . . . . . . . . . . . . . . . . . . . . . . ",
". . . . . . . + @ # $ % & * = - ; . . . . . . . ",
". . . . . ; > , ' ) ! % % ! ~ { ] + . . . . . . ",
". . . . ^ @ / ! % ( _ : < [ } | % # 1 . . . . . ",
"; ; ; ^ 2 3 4 | 5 6 : 7 _ 8 9 0 & ~ a 1 ; ; ; ; ",
"^ ^ ^ b c / 4 d e f g h i j k l m n o p q ^ ^ ^ ",
"h h q r s { t u v w x y z w A ] B C D a E h h h ",
"q q b F G % H I J K L L L M N A , O { , r 1 q q ",
"+ + E P Q R S T U V W q X Y Z h @ ` C r r  .+ + ",
"....E +.@.C > #.> $.Y %.&.*.=., D t -.;.>.,.....",
"1 1 > '.).e ;.!.!.!.~.Y {.].$ / ^./.(._.- :.1 1 ",
":.:.<.[.}.|.1.2.2.2.3.4.5.{ D D a 6.7.8.i _.:.:.",
"> > 9.0.+ a.b.a a 4.c.d.e.f.].g.h.: i.j.k.l.> > ",
"- - _.m.L % u n.4.e.o.p.q.f.f.r.s.t.^.u.v.b - - ",
"w.w.E x.y.z.: p r r r r r r A.p [ t B.C.g w.w.w.",
";.;.;.1 D.E., F.G.- E E E > S H.7.j I.J.w.;.;.;.",
"f f f K.; I.L.= M./ P r = { C C N.O.x P.f f f f ",
"!.!.!.!.K.. Q.O.g ].u $ $ R., S.O.y _.!.!.!.!.!.",
"@ @ @ @ @ !.g y O.O.T.S.A x O.Q.L - @ @ @ @ @ @ ",
"2.2.2.2.2.2.2.S _.U.x Q.V.W.; w.P 2.2.2.2.2.2.2.",
"= = = = = = = = = = = = = = = = = = = = = = = = ",
"X.X.X.X.X.X.X.X.X.X.X.X.X.X.X.X.X.X.X.X.X.X.X.X.",
"Y.Y.Y.Y.Y.Y.Y.Y.Y.Y.Y.Y.Y.Y.Y.Y.Y.Y.Y.Y.Y.Y.Y.Y."};
