/* XPM */
static char * iconify_inactive_xpm[] = {
"24 24 173 2",
"  	c None",
". 	c #ECECEC",
"+ 	c #E7E7E7",
"@ 	c #D8D8D8",
"# 	c #CBCBCB",
"$ 	c #C1C1C1",
"% 	c #BBBBBB",
"& 	c #BDBDBD",
"* 	c #C4C4C4",
"= 	c #CFCFCF",
"- 	c #DFDFDF",
"; 	c #EBEBEB",
"> 	c #E0E0E0",
", 	c #CCCCCC",
"' 	c #BFBFBF",
") 	c #BCBBBC",
"! 	c #BABABA",
"~ 	c #BCBCBC",
"{ 	c #C3C3C3",
"] 	c #D5D5D5",
"^ 	c #EAEAEA",
"/ 	c #C2C2C2",
"( 	c #B8B8B8",
"_ 	c #B1B1B1",
": 	c #ADADAD",
"< 	c #ACACAD",
"[ 	c #B2B2B2",
"} 	c #B9BAB9",
"| 	c #BCBBBB",
"1 	c #E4E4E4",
"2 	c #DAD9DA",
"3 	c #BFBFC0",
"4 	c #BDBDBC",
"5 	c #AEADAD",
"6 	c #A3A3A3",
"7 	c #B2B2B3",
"8 	c #A6A6A7",
"9 	c #9F9F9F",
"0 	c #AFAEAE",
"a 	c #CACACA",
"b 	c #E1E1E1",
"c 	c #C8C7C8",
"d 	c #A8A8A7",
"e 	c #B5B5B4",
"f 	c #DADADA",
"g 	c #E6E6E6",
"h 	c #E9E9E9",
"i 	c #E5E6E5",
"j 	c #DFDFDE",
"k 	c #C5C5C5",
"l 	c #A1A1A2",
"m 	c #A8A9A9",
"n 	c #C1C2C0",
"o 	c #C1C1C0",
"p 	c #D3D3D3",
"q 	c #E8E8E8",
"r 	c #D4D4D4",
"s 	c #C7C6C6",
"t 	c #ABABAB",
"u 	c #C0C0C0",
"v 	c #F1F1F1",
"w 	c #F8F8F8",
"x 	c #F7F7F7",
"y 	c #F6F6F6",
"z 	c #F6F7F7",
"A 	c #F2F2F2",
"B 	c #A8A8A8",
"C 	c #AEAEAE",
"D 	c #C6C6C6",
"E 	c #DEDEDE",
"F 	c #CFCECF",
"G 	c #CDCCCC",
"H 	c #B5B5B5",
"I 	c #EEEEEE",
"J 	c #EFEFEF",
"K 	c #A2A2A2",
"L 	c #D2D2D2",
"M 	c #D0CFCF",
"N 	c #B0B0B0",
"O 	c #D6D6D6",
"P 	c #EAEAEB",
"Q 	c #E8E9E8",
"R 	c #EAEAE9",
"S 	c #E9EAE9",
"T 	c #AFAFAF",
"U 	c #E2E1E2",
"V 	c #E5E5E5",
"W 	c #DAD9D9",
"X 	c #D4D3D3",
"Y 	c #E0E0E1",
"Z 	c #DCDDDC",
"` 	c #D4D5D4",
" .	c #A1A1A1",
"..	c #DCDCDC",
"+.	c #D8D8D9",
"@.	c #E1E0E0",
"#.	c #DFDFE0",
"$.	c #D9D8D9",
"%.	c #D9D9D9",
"&.	c #DADAD9",
"*.	c #D8D8D7",
"=.	c #D1D1D1",
"-.	c #C8C8C8",
";.	c #C7C7C7",
">.	c #ABACAC",
",.	c #A4A5A5",
"'.	c #E3E3E3",
").	c #E2E2E2",
"!.	c #E4E3E3",
"~.	c #E7E5E6",
"{.	c #E1DFE0",
"].	c #B3B3B2",
"^.	c #D3D4D4",
"/.	c #D0D0D0",
"(.	c #CECECE",
"_.	c #C4C4C5",
":.	c #ACABAB",
"<.	c #A5A5A5",
"[.	c #E9EAEA",
"}.	c #E5E4E4",
"|.	c #ECECEB",
"1.	c #ACACAB",
"2.	c #CCCDCD",
"3.	c #CAC9C9",
"4.	c #C7C8C8",
"5.	c #C9C9C8",
"6.	c #C8C9C8",
"7.	c #C9CAC9",
"8.	c #AAAAA9",
"9.	c #EFF0EF",
"0.	c #E2E3E3",
"a.	c #F0F0F1",
"b.	c #CDCDCD",
"c.	c #435FA5",
"d.	c #27489D",
"e.	c #294A9E",
"f.	c #25479D",
"g.	c #4460A6",
"h.	c #526BAA",
"i.	c #C1C2C1",
"j.	c #AAAAAA",
"k.	c #F2F3F3",
"l.	c #EBECEB",
"m.	c #DDDDDD",
"n.	c #EEEEED",
"o.	c #F8F7F7",
"p.	c #DDDCDB",
"q.	c #3554A2",
"r.	c #2F4FA0",
"s.	c #24479D",
"t.	c #5E75AF",
"u.	c #EDEEEE",
"v.	c #F5F4F4",
"w.	c #F9F8F8",
"x.	c #F9F9F9",
"y.	c #B3B2B3",
"z.	c #D7D7D7",
"A.	c #B5B4B5",
"B.	c #FDFDFD",
"C.	c #EFEEEF",
"D.	c #DBDBDB",
"E.	c #FCFBFC",
"F.	c #B3B3B3",
"G.	c #FFFFFF",
"H.	c #E1E1E2",
"I.	c #FCFCFC",
"J.	c #BEBEBE",
"K.	c #F0F0F0",
"L.	c #F3F3F3",
"M.	c #FBFBFB",
"N.	c #F4F4F4",
"O.	c #CCCDCF",
"P.	c #3C3C3C",
". . . . . . . . . . . . . . . . . . . . . . . . ",
". . . . . . . . . . . . . . . . . . . . . . . . ",
". . . . . . . + @ # $ % & * = - ; . . . . . . . ",
". . . . . ; > , ' ) ! % % ! ~ { ] + . . . . . . ",
". . . . ^ @ / ! % ( _ : < [ } | % # 1 . . . . . ",
"; ; ; ^ 2 3 4 | 5 6 : 7 _ 8 9 0 & ~ a 1 ; ; ; ; ",
"^ ^ ^ b c / 4 d e f g h i j k l m n o p q ^ ^ ^ ",
"h h q r s { t u v w x y z w A ] B C D a E h h h ",
"q q b F G % H I A J J J J J A A , K { , r 1 q q ",
"+ + E L M N O P q Q q q q R S h @ T C r r U + + ",
"V V E W X C > Y > > > > b Z ` , D t  ...+.@.V V ",
"1 1 > #.$.e ..%.%.%.&.*.=.-.$ / ;.>.,.'.- ).1 1 ",
").).!.~.{.].^./././.(.a _.* D D a :.<.[.i '.).).",
"> > }.|.+ 1.2.a a 3.-.4.-.5.-.6.7.: 8.9.S 0.> > ",
"- - '.a.J % u (.b.c.d.e.f.g.h./.i.j.;.k.l.b - - ",
"m.m.E n.o.p.: p r q.e.e.r.s.t.p [ t u.v.g m.m.m.",
"......1 w.x., y.z.- E E E > O A.<.j B.C.m.......",
"f f f D.; B.E.= F./ L r = { C C Z G.x H.f f f f ",
"%.%.%.%.D.. I.G.g -.u $ $ J., K.G.y '.%.%.%.%.%.",
"@ @ @ @ @ %.g y G.G.L.K.A x G.I.J - @ @ @ @ @ @ ",
"/././././././.O '.I x I.M.N.; m.L /././././././.",
"= = = = = = = = = = = = = = = = = = = = = = = = ",
"O.O.O.O.O.O.O.O.O.O.O.O.O.O.O.O.O.O.O.O.O.O.O.O.",
"P.P.P.P.P.P.P.P.P.P.P.P.P.P.P.P.P.P.P.P.P.P.P.P."};
