/* XPM */
static char * maximize_activeup_xpm[] = {
"24 24 167 2",
"  	c None",
". 	c #ECECEC",
"+ 	c #E7E7E7",
"@ 	c #D8D8D8",
"# 	c #CBCBCB",
"$ 	c #C1C1C1",
"% 	c #BBBBBB",
"& 	c #BDBDBD",
"* 	c #C4C4C4",
"= 	c #CFCFCF",
"- 	c #DFDFDF",
"; 	c #EBEBEB",
"> 	c #E0E0E0",
", 	c #CCCCCC",
"' 	c #BFBFBF",
") 	c #BCBBBC",
"! 	c #BABABA",
"~ 	c #BCBCBC",
"{ 	c #C3C3C3",
"] 	c #D5D5D5",
"^ 	c #EAEAEA",
"/ 	c #C2C2C2",
"( 	c #B8B8B8",
"_ 	c #B1B1B1",
": 	c #ADADAD",
"< 	c #ACACAD",
"[ 	c #B2B2B2",
"} 	c #B9BAB9",
"| 	c #BCBBBB",
"1 	c #E4E4E4",
"2 	c #DAD9DA",
"3 	c #BFBFC0",
"4 	c #BDBDBC",
"5 	c #AEADAD",
"6 	c #A3A3A3",
"7 	c #B2B2B3",
"8 	c #A6A6A7",
"9 	c #9F9F9F",
"0 	c #AFAEAE",
"a 	c #CACACA",
"b 	c #E1E1E1",
"c 	c #C8C7C8",
"d 	c #A8A8A7",
"e 	c #B5B5B4",
"f 	c #DADADA",
"g 	c #E6E6E6",
"h 	c #E9E9E9",
"i 	c #E5E6E5",
"j 	c #DFDFDE",
"k 	c #C5C5C5",
"l 	c #A1A1A2",
"m 	c #A8A9A9",
"n 	c #C1C2C0",
"o 	c #C1C1C0",
"p 	c #D3D3D3",
"q 	c #E8E8E8",
"r 	c #D4D4D4",
"s 	c #C7C6C6",
"t 	c #ABABAB",
"u 	c #C0C0C0",
"v 	c #F1F1F1",
"w 	c #F8F8F8",
"x 	c #F7F7F7",
"y 	c #F6F6F6",
"z 	c #F6F7F7",
"A 	c #F2F2F2",
"B 	c #A8A8A8",
"C 	c #AEAEAE",
"D 	c #C6C6C6",
"E 	c #DEDEDE",
"F 	c #CFCECF",
"G 	c #CDCCCC",
"H 	c #B5B5B5",
"I 	c #EEEEEE",
"J 	c #3258AB",
"K 	c #3158AB",
"L 	c #A2A2A2",
"M 	c #D2D2D2",
"N 	c #D0CFCF",
"O 	c #B0B0B0",
"P 	c #D6D6D6",
"Q 	c #EAEAEB",
"R 	c #E8E9E8",
"S 	c #EAEAE9",
"T 	c #E9EAE9",
"U 	c #3056AB",
"V 	c #AFAFAF",
"W 	c #E2E1E2",
"X 	c #E5E5E5",
"Y 	c #DAD9D9",
"Z 	c #D4D3D3",
"` 	c #E0E0E1",
" .	c #DCDDDC",
"..	c #D4D5D4",
"+.	c #A1A1A1",
"@.	c #DCDCDC",
"#.	c #D8D8D9",
"$.	c #E1E0E0",
"%.	c #DFDFE0",
"&.	c #D9D8D9",
"*.	c #D9D9D9",
"=.	c #DADAD9",
"-.	c #D8D8D7",
";.	c #D1D1D1",
">.	c #C8C8C8",
",.	c #3056AA",
"'.	c #C7C7C7",
").	c #ABACAC",
"!.	c #A4A5A5",
"~.	c #E3E3E3",
"{.	c #E2E2E2",
"].	c #E4E3E3",
"^.	c #E7E5E6",
"/.	c #E1DFE0",
"(.	c #B3B3B2",
"_.	c #D3D4D4",
":.	c #D0D0D0",
"<.	c #CECECE",
"[.	c #C4C4C5",
"}.	c #ACABAB",
"|.	c #A5A5A5",
"1.	c #E9EAEA",
"2.	c #E5E4E4",
"3.	c #ECECEB",
"4.	c #ACACAB",
"5.	c #CCCDCD",
"6.	c #CAC9C9",
"7.	c #C7C8C8",
"8.	c #C9C9C8",
"9.	c #C9CAC9",
"0.	c #AAAAA9",
"a.	c #EFF0EF",
"b.	c #E2E3E3",
"c.	c #F0F0F1",
"d.	c #EFEFEF",
"e.	c #3055AA",
"f.	c #C1C2C1",
"g.	c #AAAAAA",
"h.	c #F2F3F3",
"i.	c #EBECEB",
"j.	c #DDDDDD",
"k.	c #EEEEED",
"l.	c #F8F7F7",
"m.	c #DDDCDB",
"n.	c #D5D5D6",
"o.	c #EDEEEE",
"p.	c #F5F4F4",
"q.	c #F9F8F8",
"r.	c #F9F9F9",
"s.	c #B3B2B3",
"t.	c #D7D7D7",
"u.	c #B5B4B5",
"v.	c #FDFDFD",
"w.	c #EFEEEF",
"x.	c #DBDBDB",
"y.	c #FCFBFC",
"z.	c #B3B3B3",
"A.	c #FFFFFF",
"B.	c #E1E1E2",
"C.	c #FCFCFC",
"D.	c #BEBEBE",
"E.	c #F0F0F0",
"F.	c #F3F3F3",
"G.	c #FBFBFB",
"H.	c #F4F4F4",
"I.	c #CCCDCF",
"J.	c #3C3C3C",
". . . . . . . . . . . . . . . . . . . . . . . . ",
". . . . . . . . . . . . . . . . . . . . . . . . ",
". . . . . . . + @ # $ % & * = - ; . . . . . . . ",
". . . . . ; > , ' ) ! % % ! ~ { ] + . . . . . . ",
". . . . ^ @ / ! % ( _ : < [ } | % # 1 . . . . . ",
"; ; ; ^ 2 3 4 | 5 6 : 7 _ 8 9 0 & ~ a 1 ; ; ; ; ",
"^ ^ ^ b c / 4 d e f g h i j k l m n o p q ^ ^ ^ ",
"h h q r s { t u v w x y z w A ] B C D a E h h h ",
"q q b F G % H I J K K K K K K K , L { , r 1 q q ",
"+ + E M N O P Q K R q q q S T U @ V C r r W + + ",
"X X E Y Z C > ` K > > > b  ...U D t +.@.#.$.X X ",
"1 1 > %.&.e @.*.U *.=.-.;.>.$ ,.'.).!.~.- {.1 1 ",
"{.{.].^./.(._.:.U :.<.a [.* D ,.a }.|.1.i ~.{.{.",
"> > 2.3.+ 4.5.a U 6.>.7.>.8.>.,.9.: 0.a.T b.> > ",
"- - ~.c.d.% u <.,.,.,.,.,.,.e.e.f.g.'.h.i.b - - ",
"j.j.E k.l.m.: p r r r r r r n.p [ t o.p.g j.j.j.",
"@.@.@.1 q.r., s.t.- E E E > P u.|.j v.w.j.@.@.@.",
"f f f x.; v.y.= z./ M r = { C C  .A.x B.f f f f ",
"*.*.*.*.x.. C.A.g >.u $ $ D., E.A.y ~.*.*.*.*.*.",
"@ @ @ @ @ *.g y A.A.F.E.A x A.C.d.- @ @ @ @ @ @ ",
":.:.:.:.:.:.:.P ~.I x C.G.H.; j.M :.:.:.:.:.:.:.",
"= = = = = = = = = = = = = = = = = = = = = = = = ",
"I.I.I.I.I.I.I.I.I.I.I.I.I.I.I.I.I.I.I.I.I.I.I.I.",
"J.J.J.J.J.J.J.J.J.J.J.J.J.J.J.J.J.J.J.J.J.J.J.J."};
