/* XPM */
static char * title_active_xpm[] = {
"1 24 21 1",
" 	c None",
".	c #ECECEC",
"+	c #EBEBEB",
"@	c #EAEAEA",
"#	c #E9E9E9",
"$	c #E8E8E8",
"%	c #E7E7E7",
"&	c #E5E5E5",
"*	c #E4E4E4",
"=	c #E2E2E2",
"-	c #E0E0E0",
";	c #DFDFDF",
">	c #DDDDDD",
",	c #DCDCDC",
"'	c #DADADA",
")	c #D9D9D9",
"!	c #D8D8D8",
"~	c #D0D0D0",
"{	c #CFCFCF",
"]	c #CCCDCF",
"^	c #3C3C3C",
".",
".",
".",
".",
".",
"+",
"@",
"#",
"$",
"%",
"&",
"*",
"=",
"-",
";",
">",
",",
"'",
")",
"!",
"~",
"{",
"]",
"^"};
